<svg xmlns="http://www.w3.org/2000/svg" viewBox="0 0 122.29 122.29"><title>2halftone</title><g id="Camada_2" data-name="Camada 2"><g id="Layer_1" data-name="Layer 1"><circle cx="24.77" cy="0.54" r="0.03"/><path d="M36.88.74a.2.2,0,1,0-.2-.2A.2.2,0,0,0,36.88.74Z"/><path d="M49,1a.43.43,0,0,0,.43-.43A.44.44,0,0,0,49,.1a.44.44,0,0,0-.44.44A.44.44,0,0,0,49,1Z"/><circle cx="61.11" cy="0.54" r="0.54"/><circle cx="73.23" cy="0.54" r="0.44"/><path d="M85.34.77a.23.23,0,0,0,.24-.23A.24.24,0,0,0,85.34.3a.23.23,0,0,0-.23.24A.23.23,0,0,0,85.34.77Z"/><circle cx="97.46" cy="0.54" r="0.03"/><path d="M12.65,12.72a.07.07,0,0,0,.07-.07.07.07,0,0,0-.07-.06.06.06,0,0,0-.06.06A.07.07,0,0,0,12.65,12.72Z"/><circle cx="24.77" cy="12.65" r="0.54"/><circle cx="36.88" cy="12.65" r="1.04"/><path d="M49,14.06a1.41,1.41,0,1,0-1.41-1.41A1.41,1.41,0,0,0,49,14.06Z"/><path d="M61.11,14.2a1.55,1.55,0,1,0-1.54-1.55A1.54,1.54,0,0,0,61.11,14.2Z"/><path d="M73.23,14.06a1.41,1.41,0,1,0-1.41-1.41A1.41,1.41,0,0,0,73.23,14.06Z"/><circle cx="85.34" cy="12.65" r="1.07"/><circle cx="97.46" cy="12.65" r="0.57"/><circle cx="109.57" cy="12.65" r="0.1"/><circle cx="0.54" cy="24.77" r="0.03"/><circle cx="12.65" cy="24.77" r="0.54"/><path d="M24.77,26a1.28,1.28,0,1,0-1.28-1.27A1.27,1.27,0,0,0,24.77,26Z"/><path d="M36.88,26.68A1.92,1.92,0,1,0,35,24.77,1.92,1.92,0,0,0,36.88,26.68Z"/><path d="M49,27.15a2.39,2.39,0,1,0-2.39-2.38A2.39,2.39,0,0,0,49,27.15Z"/><path d="M61.11,27.32a2.56,2.56,0,1,0-2.55-2.55A2.56,2.56,0,0,0,61.11,27.32Z"/><path d="M73.23,27.15a2.39,2.39,0,1,0-2.39-2.38A2.39,2.39,0,0,0,73.23,27.15Z"/><path d="M85.34,26.75a2,2,0,1,0-2-2A2,2,0,0,0,85.34,26.75Z"/><path d="M97.46,26.11a1.35,1.35,0,1,0-1.35-1.34A1.34,1.34,0,0,0,97.46,26.11Z"/><circle cx="109.57" cy="24.77" r="0.57"/><circle cx="121.69" cy="24.77" r="0.03"/><path d="M.54,37.08a.2.2,0,1,0-.2-.2A.2.2,0,0,0,.54,37.08Z"/><path d="M12.65,37.92a1,1,0,0,0,0-2.08,1,1,0,0,0,0,2.08Z"/><path d="M24.77,38.8a1.92,1.92,0,1,0-1.92-1.92A1.92,1.92,0,0,0,24.77,38.8Z"/><path d="M36.88,39.57a2.69,2.69,0,1,0-2.69-2.69A2.68,2.68,0,0,0,36.88,39.57Z"/><path d="M49,40.17a3.29,3.29,0,1,0-3.3-3.29A3.29,3.29,0,0,0,49,40.17Z"/><path d="M61.11,40.44a3.56,3.56,0,1,0-3.56-3.56A3.56,3.56,0,0,0,61.11,40.44Z"/><circle cx="73.23" cy="36.88" r="3.36"/><path d="M85.34,39.64a2.76,2.76,0,1,0-2.75-2.76A2.77,2.77,0,0,0,85.34,39.64Z"/><path d="M97.46,38.86a2,2,0,1,0-2-2A2,2,0,0,0,97.46,38.86Z"/><circle cx="109.57" cy="36.88" r="1.11"/><path d="M121.69,37.15a.27.27,0,1,0-.27-.27A.27.27,0,0,0,121.69,37.15Z"/><circle cx="0.54" cy="49" r="0.44"/><path d="M12.65,50.41A1.41,1.41,0,1,0,11.24,49,1.41,1.41,0,0,0,12.65,50.41Z"/><circle cx="24.77" cy="49" r="2.39"/><circle cx="36.88" cy="49" r="3.29"/><path d="M49,53.1A4.1,4.1,0,1,0,44.9,49,4.11,4.11,0,0,0,49,53.1Z"/><circle cx="61.11" cy="49" r="4.54"/><circle cx="73.23" cy="49" r="4.17"/><circle cx="85.34" cy="49" r="3.36"/><path d="M97.46,51.45A2.46,2.46,0,1,0,95,49,2.45,2.45,0,0,0,97.46,51.45Z"/><circle cx="109.57" cy="49" r="1.48"/><circle cx="121.69" cy="49" r="0.5"/><circle cx="0.54" cy="61.11" r="0.54"/><path d="M12.65,62.66a1.55,1.55,0,1,0-1.54-1.55A1.54,1.54,0,0,0,12.65,62.66Z"/><path d="M24.77,63.66a2.55,2.55,0,1,0-2.56-2.55A2.55,2.55,0,0,0,24.77,63.66Z"/><path d="M36.88,64.67a3.56,3.56,0,1,0-3.56-3.56A3.56,3.56,0,0,0,36.88,64.67Z"/><circle cx="49" cy="61.11" r="4.54"/><circle cx="61.11" cy="61.11" r="5.24"/><circle cx="73.23" cy="61.11" r="4.6"/><path d="M85.34,64.74a3.63,3.63,0,1,0-3.63-3.63A3.62,3.62,0,0,0,85.34,64.74Z"/><path d="M97.46,63.73a2.62,2.62,0,1,0-2.62-2.62A2.62,2.62,0,0,0,97.46,63.73Z"/><path d="M109.57,62.72A1.61,1.61,0,1,0,108,61.11,1.61,1.61,0,0,0,109.57,62.72Z"/><circle cx="121.69" cy="61.11" r="0.6"/><path d="M.54,73.66A.43.43,0,0,0,1,73.23a.44.44,0,0,0-.43-.44.44.44,0,0,0-.44.44A.44.44,0,0,0,.54,73.66Z"/><path d="M12.65,74.64a1.41,1.41,0,1,0-1.41-1.41A1.41,1.41,0,0,0,12.65,74.64Z"/><circle cx="24.77" cy="73.23" r="2.39"/><circle cx="36.88" cy="73.23" r="3.36"/><path d="M49,77.39a4.17,4.17,0,1,0-4.17-4.16A4.16,4.16,0,0,0,49,77.39Z"/><circle cx="61.11" cy="73.23" r="4.6"/><path d="M73.23,77.46A4.24,4.24,0,1,0,69,73.23,4.24,4.24,0,0,0,73.23,77.46Z"/><circle cx="85.34" cy="73.23" r="3.43"/><path d="M97.46,75.71A2.49,2.49,0,1,0,95,73.23,2.48,2.48,0,0,0,97.46,75.71Z"/><path d="M109.57,74.74a1.51,1.51,0,1,0-1.51-1.51A1.51,1.51,0,0,0,109.57,74.74Z"/><circle cx="121.69" cy="73.23" r="0.54"/><path d="M.54,85.58a.23.23,0,0,0,.23-.24.23.23,0,0,0-.23-.23.23.23,0,0,0-.24.23A.24.24,0,0,0,.54,85.58Z"/><path d="M12.65,86.42a1.08,1.08,0,1,0-1.07-1.08A1.08,1.08,0,0,0,12.65,86.42Z"/><path d="M24.77,87.32a2,2,0,1,0-2-2A2,2,0,0,0,24.77,87.32Z"/><circle cx="36.88" cy="85.34" r="2.75"/><path d="M49,88.7a3.36,3.36,0,1,0-3.36-3.36A3.36,3.36,0,0,0,49,88.7Z"/><path d="M61.11,89a3.63,3.63,0,1,0-3.63-3.63A3.62,3.62,0,0,0,61.11,89Z"/><circle cx="73.23" cy="85.34" r="3.43"/><circle cx="85.34" cy="85.34" r="2.82"/><path d="M97.46,87.39a2,2,0,1,0-2-2A2.05,2.05,0,0,0,97.46,87.39Z"/><circle cx="109.57" cy="85.34" r="1.18"/><path d="M121.69,85.61a.27.27,0,1,0-.27-.27A.27.27,0,0,0,121.69,85.61Z"/><circle cx="0.54" cy="97.46" r="0.03"/><circle cx="12.65" cy="97.46" r="0.57"/><path d="M24.77,98.8a1.35,1.35,0,1,0-1.35-1.34A1.34,1.34,0,0,0,24.77,98.8Z"/><path d="M36.88,99.44a2,2,0,1,0-2-2A2,2,0,0,0,36.88,99.44Z"/><path d="M49,99.91a2.46,2.46,0,1,0-2.46-2.45A2.45,2.45,0,0,0,49,99.91Z"/><path d="M61.11,100.08a2.62,2.62,0,1,0-2.62-2.62A2.62,2.62,0,0,0,61.11,100.08Z"/><path d="M73.23,99.94a2.49,2.49,0,1,0-2.49-2.48A2.48,2.48,0,0,0,73.23,99.94Z"/><path d="M85.34,99.51a2,2,0,1,0-2-2.05A2.05,2.05,0,0,0,85.34,99.51Z"/><path d="M97.46,98.87a1.41,1.41,0,1,0-1.41-1.41A1.41,1.41,0,0,0,97.46,98.87Z"/><circle cx="109.57" cy="97.46" r="0.64"/><circle cx="121.69" cy="97.46" r="0.03"/><path d="M12.65,109.67a.09.09,0,0,0,.1-.1.1.1,0,0,0-.1-.1.11.11,0,0,0-.1.1A.1.1,0,0,0,12.65,109.67Z"/><circle cx="24.77" cy="109.57" r="0.57"/><circle cx="36.88" cy="109.57" r="1.11"/><path d="M49,111.05a1.48,1.48,0,1,0-1.48-1.48A1.48,1.48,0,0,0,49,111.05Z"/><path d="M61.11,111.18a1.61,1.61,0,1,0-1.61-1.61A1.61,1.61,0,0,0,61.11,111.18Z"/><path d="M73.23,111.08a1.51,1.51,0,1,0-1.51-1.51A1.51,1.51,0,0,0,73.23,111.08Z"/><circle cx="85.34" cy="109.57" r="1.18"/><circle cx="97.46" cy="109.57" r="0.64"/><path d="M109.57,109.67a.09.09,0,0,0,.1-.1.1.1,0,0,0-.1-.1.11.11,0,0,0-.1.1A.1.1,0,0,0,109.57,109.67Z"/><circle cx="24.77" cy="121.69" r="0.03"/><path d="M36.88,122a.27.27,0,1,0-.27-.26A.27.27,0,0,0,36.88,122Z"/><path d="M49,122.19a.51.51,0,0,0,0-1,.51.51,0,1,0,0,1Z"/><circle cx="61.11" cy="121.69" r="0.6"/><circle cx="73.23" cy="121.69" r="0.54"/><path d="M85.34,122a.27.27,0,1,0-.27-.26A.27.27,0,0,0,85.34,122Z"/><circle cx="97.46" cy="121.69" r="0.03"/></g></g></svg>