<svg xmlns="http://www.w3.org/2000/svg" viewBox="0 0 135.71 135.71"><title>3halftone</title><g id="Camada_2" data-name="Camada 2"><g id="Layer_1" data-name="Layer 1"><path d="M63.61,0h0Z"/><path d="M67.86,0h0Z"/><path d="M72.1,0h0Z"/><circle cx="46.65" cy="4.25" r="0.02"/><path d="M50.89,4.3a0,0,0,0,0,0,0,.05.05,0,0,0,0,0s0,0,0,0A0,0,0,0,0,50.89,4.3Z"/><path d="M55.13,4.32a.07.07,0,1,0,0-.14.07.07,0,1,0,0,.14Z"/><path d="M59.37,4.35a.1.1,0,0,0,.1-.1.09.09,0,0,0-.1-.09.09.09,0,0,0-.09.09A.1.1,0,0,0,59.37,4.35Z"/><circle cx="63.61" cy="4.25" r="0.11"/><circle cx="67.86" cy="4.25" r="0.11"/><circle cx="72.1" cy="4.25" r="0.11"/><circle cx="76.34" cy="4.25" r="0.09"/><path d="M80.58,4.32a.07.07,0,1,0,0-.14.07.07,0,1,0,0,.14Z"/><circle cx="84.82" cy="4.25" r="0.05"/><circle cx="89.06" cy="4.25" r="0.02"/><path d="M38.17,8.53a0,0,0,0,0,0,0s0,0,0,0a0,0,0,0,0,0,0S38.15,8.53,38.17,8.53Z"/><circle cx="42.41" cy="8.49" r="0.08"/><path d="M46.65,8.62a.13.13,0,0,0,0-.26.13.13,0,0,0,0,.26Z"/><circle cx="50.89" cy="8.49" r="0.16"/><path d="M55.13,8.68a.18.18,0,0,0,.19-.19.19.19,0,1,0-.37,0A.18.18,0,0,0,55.13,8.68Z"/><path d="M59.37,8.7a.21.21,0,0,0,.22-.21.22.22,0,0,0-.43,0A.21.21,0,0,0,59.37,8.7Z"/><circle cx="63.61" cy="8.49" r="0.22"/><path d="M67.86,8.73a.24.24,0,0,0,.23-.24.24.24,0,0,0-.47,0A.24.24,0,0,0,67.86,8.73Z"/><circle cx="72.1" cy="8.49" r="0.22"/><path d="M76.34,8.7a.21.21,0,0,0,.21-.21.22.22,0,0,0-.43,0A.21.21,0,0,0,76.34,8.7Z"/><circle cx="80.58" cy="8.49" r="0.2"/><circle cx="84.82" cy="8.49" r="0.16"/><circle cx="89.06" cy="8.49" r="0.13"/><circle cx="93.3" cy="8.49" r="0.08"/><circle cx="97.54" cy="8.49" r="0.04"/><path d="M29.69,12.76a0,0,0,0,0,0,0s0,0,0,0a0,0,0,0,0,0,0S29.68,12.76,29.69,12.76Z"/><path d="M33.93,12.8a.07.07,0,1,0-.07-.07A.07.07,0,0,0,33.93,12.8Z"/><circle cx="38.17" cy="12.73" r="0.14"/><path d="M42.41,12.92a.18.18,0,0,0,.19-.19.19.19,0,1,0-.37,0A.18.18,0,0,0,42.41,12.92Z"/><path d="M46.65,13a.24.24,0,0,0,.24-.24.23.23,0,0,0-.24-.23.23.23,0,0,0-.23.23A.23.23,0,0,0,46.65,13Z"/><circle cx="50.89" cy="12.73" r="0.28"/><path d="M55.13,13.05a.32.32,0,0,0,.32-.32.32.32,0,1,0-.63,0A.31.31,0,0,0,55.13,13.05Z"/><circle cx="59.37" cy="12.73" r="0.34"/><path d="M63.61,13.09a.36.36,0,1,0,0-.71.36.36,0,0,0,0,.71Z"/><path d="M67.86,13.09a.36.36,0,1,0-.36-.36A.36.36,0,0,0,67.86,13.09Z"/><path d="M72.1,13.09a.36.36,0,1,0-.36-.36A.36.36,0,0,0,72.1,13.09Z"/><circle cx="76.34" cy="12.73" r="0.34"/><circle cx="80.58" cy="12.73" r="0.32"/><circle cx="84.82" cy="12.73" r="0.28"/><circle cx="89.06" cy="12.73" r="0.25"/><circle cx="93.3" cy="12.73" r="0.2"/><circle cx="97.54" cy="12.73" r="0.14"/><circle cx="101.78" cy="12.73" r="0.08"/><circle cx="106.02" cy="12.73" r="0.02"/><path d="M25.45,17a0,0,0,0,0,0,0s0,0,0,0a0,0,0,0,0,0,0S25.43,17,25.45,17Z"/><path d="M29.69,17.08A.11.11,0,0,0,29.8,17a.1.1,0,0,0-.11-.1.09.09,0,0,0-.1.1A.1.1,0,0,0,29.69,17.08Z"/><path d="M33.93,17.15a.18.18,0,0,0,.18-.18.18.18,0,0,0-.18-.17.18.18,0,0,0-.17.17A.18.18,0,0,0,33.93,17.15Z"/><path d="M38.17,17.22a.25.25,0,1,0,0-.49.25.25,0,0,0,0,.49Z"/><circle cx="42.41" cy="16.97" r="0.31"/><path d="M46.65,17.33a.36.36,0,1,0,0-.71.36.36,0,0,0,0,.71Z"/><path d="M50.89,17.37a.4.4,0,0,0,0-.8.4.4,0,0,0,0,.8Z"/><path d="M55.13,17.41a.44.44,0,0,0,.44-.44.44.44,0,0,0-.44-.43.43.43,0,0,0-.43.43A.44.44,0,0,0,55.13,17.41Z"/><path d="M59.37,17.43a.45.45,0,0,0,.46-.46.46.46,0,1,0-.91,0A.45.45,0,0,0,59.37,17.43Z"/><circle cx="63.61" cy="16.97" r="0.47"/><circle cx="67.86" cy="16.97" r="0.48"/><circle cx="72.1" cy="16.97" r="0.48"/><path d="M76.34,17.43a.45.45,0,0,0,.45-.46.46.46,0,1,0-.45.46Z"/><path d="M80.58,17.41A.44.44,0,0,0,81,17a.43.43,0,0,0-.43-.43.44.44,0,0,0-.44.43A.44.44,0,0,0,80.58,17.41Z"/><circle cx="84.82" cy="16.97" r="0.4"/><circle cx="89.06" cy="16.97" r="0.36"/><circle cx="93.3" cy="16.97" r="0.31"/><circle cx="97.54" cy="16.97" r="0.25"/><circle cx="101.78" cy="16.97" r="0.19"/><circle cx="106.02" cy="16.97" r="0.12"/><path d="M110.26,17s0,0,0,0a0,0,0,0,0,0,0s0,0,0,0A0,0,0,0,0,110.26,17Z"/><path d="M21.21,21.26a0,0,0,0,0,.05-.05,0,0,0,0,0-.05,0,0,0,0,0,0,0,0A0,0,0,0,0,21.21,21.26Z"/><path d="M25.45,21.34a.13.13,0,1,0-.13-.13A.13.13,0,0,0,25.45,21.34Z"/><path d="M29.69,21.41a.2.2,0,1,0-.2-.2A.2.2,0,0,0,29.69,21.41Z"/><path d="M33.93,21.5a.29.29,0,1,0,0-.57.29.29,0,0,0,0,.57Z"/><path d="M38.17,21.57a.36.36,0,1,0,0-.71.36.36,0,0,0,0,.71Z"/><path d="M42.41,21.62a.41.41,0,0,0,.42-.41.42.42,0,0,0-.83,0A.41.41,0,0,0,42.41,21.62Z"/><path d="M46.65,21.68a.47.47,0,1,0-.47-.47A.47.47,0,0,0,46.65,21.68Z"/><path d="M50.89,21.73a.52.52,0,1,0-.51-.52A.52.52,0,0,0,50.89,21.73Z"/><circle cx="55.13" cy="21.21" r="0.55"/><path d="M59.37,21.79a.58.58,0,0,0,.58-.58.58.58,0,0,0-1.15,0A.58.58,0,0,0,59.37,21.79Z"/><path d="M63.61,21.81a.6.6,0,1,0-.59-.6A.6.6,0,0,0,63.61,21.81Z"/><path d="M67.86,21.81a.6.6,0,1,0-.6-.6A.59.59,0,0,0,67.86,21.81Z"/><path d="M72.1,21.81a.6.6,0,1,0-.6-.6A.59.59,0,0,0,72.1,21.81Z"/><circle cx="76.34" cy="21.21" r="0.59"/><circle cx="80.58" cy="21.21" r="0.55"/><path d="M84.82,21.73a.52.52,0,1,0-.52-.52A.51.51,0,0,0,84.82,21.73Z"/><circle cx="89.06" cy="21.21" r="0.47"/><circle cx="93.3" cy="21.21" r="0.42"/><path d="M97.54,21.57a.36.36,0,1,0-.36-.36A.36.36,0,0,0,97.54,21.57Z"/><circle cx="101.78" cy="21.21" r="0.28"/><path d="M106,21.42a.21.21,0,0,0,.21-.21A.22.22,0,0,0,106,21a.21.21,0,0,0-.21.21A.21.21,0,0,0,106,21.42Z"/><path d="M110.26,21.34a.13.13,0,1,0-.13-.13A.13.13,0,0,0,110.26,21.34Z"/><path d="M114.5,21.26a0,0,0,0,0,0-.05,0,0,0,0,0,0,0,0,0,0,0,0,0,0A0,0,0,0,0,114.5,21.26Z"/><path d="M17,25.49a0,0,0,0,0,0,0s0,0,0,0a0,0,0,0,0,0,0S17,25.49,17,25.49Z"/><path d="M21.21,25.58a.13.13,0,1,0-.13-.13A.13.13,0,0,0,21.21,25.58Z"/><path d="M25.45,25.66a.21.21,0,0,0,.21-.21.21.21,0,0,0-.21-.21.22.22,0,0,0-.21.21A.21.21,0,0,0,25.45,25.66Z"/><path d="M29.69,25.75a.3.3,0,1,0,0-.59.3.3,0,0,0,0,.59Z"/><path d="M33.93,25.83a.38.38,0,1,0,0-.75.38.38,0,0,0,0,.75Z"/><path d="M38.17,25.91a.45.45,0,0,0,.46-.46.46.46,0,1,0-.91,0A.45.45,0,0,0,38.17,25.91Z"/><path d="M42.41,26a.52.52,0,1,0-.51-.52A.52.52,0,0,0,42.41,26Z"/><path d="M46.65,26a.58.58,0,0,0,.58-.58.58.58,0,0,0-1.15,0A.58.58,0,0,0,46.65,26Z"/><path d="M50.89,26.09a.64.64,0,0,0,.64-.64.64.64,0,0,0-.64-.63.63.63,0,0,0-.63.63A.64.64,0,0,0,50.89,26.09Z"/><circle cx="55.13" cy="25.45" r="0.67"/><circle cx="59.37" cy="25.45" r="0.71"/><circle cx="63.61" cy="25.45" r="0.73"/><circle cx="67.86" cy="25.45" r="0.73"/><circle cx="72.1" cy="25.45" r="0.73"/><circle cx="76.34" cy="25.45" r="0.71"/><path d="M80.58,26.14a.69.69,0,1,0-.69-.69A.69.69,0,0,0,80.58,26.14Z"/><path d="M84.82,26.09a.64.64,0,0,0,.63-.64.63.63,0,0,0-.63-.63.64.64,0,0,0-.64.63A.64.64,0,0,0,84.82,26.09Z"/><circle cx="89.06" cy="25.45" r="0.59"/><circle cx="93.3" cy="25.45" r="0.53"/><path d="M97.54,25.91a.45.45,0,0,0,.45-.46.46.46,0,1,0-.45.46Z"/><circle cx="101.78" cy="25.45" r="0.39"/><circle cx="106.02" cy="25.45" r="0.31"/><circle cx="110.26" cy="25.45" r="0.22"/><path d="M114.5,25.58a.13.13,0,1,0-.13-.13A.13.13,0,0,0,114.5,25.58Z"/><path d="M118.74,25.5a0,0,0,0,0,0-.05,0,0,0,0,0,0,0,0,0,0,0,0,0,0A0,0,0,0,0,118.74,25.5Z"/><path d="M12.73,29.72a0,0,0,0,0,0,0s0,0,0,0a0,0,0,0,0,0,0S12.72,29.72,12.73,29.72Z"/><path d="M17,29.8a.11.11,0,0,0,.11-.11.1.1,0,0,0-.11-.1.09.09,0,0,0-.1.1A.1.1,0,0,0,17,29.8Z"/><path d="M21.21,29.89a.2.2,0,1,0-.2-.2A.2.2,0,0,0,21.21,29.89Z"/><path d="M25.45,30a.3.3,0,1,0,0-.59.3.3,0,0,0,0,.59Z"/><path d="M29.69,30.08a.39.39,0,1,0,0-.77.39.39,0,0,0,0,.77Z"/><path d="M33.93,30.16a.47.47,0,1,0-.47-.47A.47.47,0,0,0,33.93,30.16Z"/><path d="M38.17,30.25a.56.56,0,1,0-.55-.56A.56.56,0,0,0,38.17,30.25Z"/><path d="M42.41,30.32a.63.63,0,1,0-.62-.63A.63.63,0,0,0,42.41,30.32Z"/><path d="M46.65,30.39a.7.7,0,1,0-.69-.7A.7.7,0,0,0,46.65,30.39Z"/><path d="M50.89,30.43a.74.74,0,1,0-.74-.74A.74.74,0,0,0,50.89,30.43Z"/><circle cx="55.13" cy="29.69" r="0.79"/><path d="M59.37,30.52a.83.83,0,1,0-.82-.83A.83.83,0,0,0,59.37,30.52Z"/><path d="M63.61,30.54a.85.85,0,1,0-.84-.85A.85.85,0,0,0,63.61,30.54Z"/><path d="M67.86,30.54a.85.85,0,1,0-.85-.85A.85.85,0,0,0,67.86,30.54Z"/><path d="M72.1,30.54a.85.85,0,1,0-.85-.85A.85.85,0,0,0,72.1,30.54Z"/><path d="M76.34,30.52a.83.83,0,1,0-.83-.83A.83.83,0,0,0,76.34,30.52Z"/><path d="M80.58,30.49a.8.8,0,1,0-.8-.8A.8.8,0,0,0,80.58,30.49Z"/><circle cx="84.82" cy="29.69" r="0.75"/><circle cx="89.06" cy="29.69" r="0.69"/><path d="M93.3,30.33a.64.64,0,0,0,.63-.64.63.63,0,0,0-.63-.63.64.64,0,0,0-.64.63A.64.64,0,0,0,93.3,30.33Z"/><path d="M97.54,30.25a.56.56,0,1,0-.56-.56A.56.56,0,0,0,97.54,30.25Z"/><path d="M101.78,30.18a.49.49,0,1,0-.49-.49A.49.49,0,0,0,101.78,30.18Z"/><path d="M106,30.09a.4.4,0,1,0-.4-.4A.4.4,0,0,0,106,30.09Z"/><circle cx="110.26" cy="29.69" r="0.31"/><path d="M114.5,29.9a.21.21,0,0,0,.21-.21.22.22,0,0,0-.21-.21.21.21,0,0,0-.21.21A.21.21,0,0,0,114.5,29.9Z"/><path d="M118.74,29.81a.12.12,0,0,0,.12-.12.12.12,0,0,0-.12-.11.11.11,0,0,0-.12.11A.12.12,0,0,0,118.74,29.81Z"/><path d="M123,29.72s0,0,0,0a0,0,0,0,0,0,0s0,0,0,0A0,0,0,0,0,123,29.72Z"/><path d="M12.73,34a.07.07,0,1,0-.07-.07A.07.07,0,0,0,12.73,34Z"/><path d="M17,34.11a.18.18,0,0,0,.18-.18.18.18,0,0,0-.18-.17.18.18,0,0,0-.17.17A.18.18,0,0,0,17,34.11Z"/><path d="M21.21,34.22a.29.29,0,0,0,0-.57.29.29,0,0,0,0,.57Z"/><path d="M25.45,34.31a.38.38,0,1,0,0-.75.38.38,0,0,0,0,.75Z"/><path d="M29.69,34.4a.47.47,0,1,0-.47-.47A.47.47,0,0,0,29.69,34.4Z"/><path d="M33.93,34.5a.57.57,0,1,0-.56-.57A.56.56,0,0,0,33.93,34.5Z"/><path d="M38.17,34.58a.65.65,0,1,0-.64-.65A.65.65,0,0,0,38.17,34.58Z"/><circle cx="42.41" cy="33.93" r="0.73"/><path d="M46.65,34.73a.8.8,0,0,0,0-1.6.8.8,0,0,0,0,1.6Z"/><path d="M50.89,34.79a.86.86,0,1,0-.85-.86A.85.85,0,0,0,50.89,34.79Z"/><path d="M55.13,34.84a.91.91,0,1,0,0-1.81.91.91,0,0,0,0,1.81Z"/><path d="M59.37,34.87a.94.94,0,1,0-.94-.94A.95.95,0,0,0,59.37,34.87Z"/><path d="M63.61,34.9a1,1,0,1,0-1-1A1,1,0,0,0,63.61,34.9Z"/><circle cx="67.86" cy="33.93" r="0.98"/><path d="M72.1,34.9a1,1,0,1,0-1-1A1,1,0,0,0,72.1,34.9Z"/><circle cx="76.34" cy="33.93" r="0.95"/><path d="M80.58,34.84a.91.91,0,1,0-.91-.91A.9.9,0,0,0,80.58,34.84Z"/><path d="M84.82,34.79a.86.86,0,1,0-.86-.86A.85.85,0,0,0,84.82,34.79Z"/><path d="M89.06,34.73a.8.8,0,1,0-.8-.8A.8.8,0,0,0,89.06,34.73Z"/><circle cx="93.3" cy="33.93" r="0.73"/><path d="M97.54,34.59a.66.66,0,1,0-.66-.66A.65.65,0,0,0,97.54,34.59Z"/><path d="M101.78,34.51a.58.58,0,1,0-.58-.58A.58.58,0,0,0,101.78,34.51Z"/><path d="M106,34.42a.49.49,0,1,0-.49-.49A.49.49,0,0,0,106,34.42Z"/><circle cx="110.26" cy="33.93" r="0.39"/><circle cx="114.5" cy="33.93" r="0.28"/><path d="M118.74,34.12a.19.19,0,1,0,0-.37.18.18,0,0,0-.19.18A.18.18,0,0,0,118.74,34.12Z"/><circle cx="122.98" cy="33.93" r="0.08"/><path d="M127.22,34v0h0S127.21,34,127.22,34Z"/><path d="M8.49,38.21a0,0,0,0,0,0,0s0,0,0,0a0,0,0,0,0,0,0S8.47,38.21,8.49,38.21Z"/><circle cx="12.73" cy="38.17" r="0.14"/><path d="M17,38.42a.25.25,0,1,0,0-.49.25.25,0,0,0,0,.49Z"/><path d="M21.21,38.53a.36.36,0,1,0,0-.71.36.36,0,0,0,0,.71Z"/><path d="M25.45,38.63a.46.46,0,1,0-.46-.46A.46.46,0,0,0,25.45,38.63Z"/><path d="M29.69,38.73a.56.56,0,1,0-.55-.56A.56.56,0,0,0,29.69,38.73Z"/><path d="M33.93,38.82a.65.65,0,1,0-.64-.65A.65.65,0,0,0,33.93,38.82Z"/><path d="M38.17,38.91a.74.74,0,1,0-.74-.74A.74.74,0,0,0,38.17,38.91Z"/><path d="M42.41,39a.83.83,0,1,0-.82-.83A.83.83,0,0,0,42.41,39Z"/><circle cx="46.65" cy="38.17" r="0.89"/><path d="M50.89,39.14a1,1,0,1,0-1-1A1,1,0,0,0,50.89,39.14Z"/><path d="M55.13,39.2a1,1,0,1,0-1-1A1,1,0,0,0,55.13,39.2Z"/><path d="M59.37,39.24a1.07,1.07,0,1,0-1.07-1.07A1.06,1.06,0,0,0,59.37,39.24Z"/><circle cx="63.61" cy="38.17" r="1.09"/><path d="M67.86,39.28a1.11,1.11,0,1,0-1.11-1.11A1.11,1.11,0,0,0,67.86,39.28Z"/><circle cx="72.1" cy="38.17" r="1.09"/><path d="M76.34,39.24a1.07,1.07,0,1,0-1.07-1.07A1.07,1.07,0,0,0,76.34,39.24Z"/><circle cx="80.58" cy="38.17" r="1.03"/><circle cx="84.82" cy="38.17" r="0.98"/><path d="M89.06,39.08a.91.91,0,1,0-.91-.91A.9.9,0,0,0,89.06,39.08Z"/><path d="M93.3,39a.84.84,0,0,0,.83-.84.83.83,0,0,0-.83-.83.84.84,0,0,0-.84.83A.85.85,0,0,0,93.3,39Z"/><path d="M97.54,38.91a.74.74,0,1,0-.74-.74A.74.74,0,0,0,97.54,38.91Z"/><path d="M101.78,38.83a.66.66,0,1,0,0-1.31.66.66,0,1,0,0,1.31Z"/><path d="M106,38.74a.57.57,0,0,0,0-1.13.57.57,0,1,0,0,1.13Z"/><path d="M110.26,38.63a.46.46,0,1,0,0-.91.46.46,0,1,0,0,.91Z"/><circle cx="114.5" cy="38.17" r="0.36"/><path d="M118.74,38.42a.25.25,0,1,0-.25-.25A.25.25,0,0,0,118.74,38.42Z"/><circle cx="122.98" cy="38.17" r="0.14"/><path d="M127.22,38.21s0,0,0,0a0,0,0,0,0,0,0s0,0,0,0A0,0,0,0,0,127.22,38.21Z"/><circle cx="8.49" cy="42.41" r="0.08"/><path d="M12.73,42.6a.18.18,0,0,0,.19-.19.18.18,0,0,0-.19-.18.19.19,0,1,0,0,.37Z"/><circle cx="16.97" cy="42.41" r="0.31"/><path d="M21.21,42.83a.42.42,0,0,0,0-.83.42.42,0,0,0,0,.83Z"/><path d="M25.45,42.93a.52.52,0,1,0-.51-.52A.52.52,0,0,0,25.45,42.93Z"/><path d="M29.69,43a.63.63,0,1,0-.62-.63A.63.63,0,0,0,29.69,43Z"/><path d="M33.93,43.14a.73.73,0,1,0,0-1.46.73.73,0,0,0,0,1.46Z"/><path d="M38.17,43.24a.83.83,0,1,0-.82-.83A.83.83,0,0,0,38.17,43.24Z"/><path d="M42.41,43.33a.92.92,0,1,0-.91-.92A.92.92,0,0,0,42.41,43.33Z"/><path d="M46.65,43.41a1,1,0,1,0,0-2,1,1,0,0,0,0,2Z"/><path d="M50.89,43.48a1.07,1.07,0,1,0-1.07-1.07A1.06,1.06,0,0,0,50.89,43.48Z"/><path d="M55.13,43.55A1.14,1.14,0,1,0,54,42.41,1.14,1.14,0,0,0,55.13,43.55Z"/><path d="M59.37,43.6a1.19,1.19,0,1,0-1.18-1.19A1.19,1.19,0,0,0,59.37,43.6Z"/><path d="M63.61,43.62a1.21,1.21,0,1,0-1.21-1.21A1.22,1.22,0,0,0,63.61,43.62Z"/><path d="M67.86,43.64a1.23,1.23,0,1,0-1.23-1.23A1.23,1.23,0,0,0,67.86,43.64Z"/><path d="M72.1,43.62a1.21,1.21,0,1,0-1.22-1.21A1.21,1.21,0,0,0,72.1,43.62Z"/><path d="M76.34,43.6a1.19,1.19,0,1,0-1.19-1.19A1.18,1.18,0,0,0,76.34,43.6Z"/><path d="M80.58,43.55a1.14,1.14,0,1,0-1.14-1.14A1.14,1.14,0,0,0,80.58,43.55Z"/><path d="M84.82,43.5a1.09,1.09,0,1,0-1.09-1.09A1.09,1.09,0,0,0,84.82,43.5Z"/><path d="M89.06,43.43a1,1,0,1,0-1-1A1,1,0,0,0,89.06,43.43Z"/><path d="M93.3,43.33a.92.92,0,1,0-.92-.92A.92.92,0,0,0,93.3,43.33Z"/><path d="M97.54,43.25a.84.84,0,0,0,.83-.84.83.83,0,0,0-.83-.83.84.84,0,0,0-.84.83A.85.85,0,0,0,97.54,43.25Z"/><path d="M101.78,43.15a.74.74,0,1,0-.74-.74A.74.74,0,0,0,101.78,43.15Z"/><path d="M106,43.05a.64.64,0,0,0,.63-.64.63.63,0,0,0-.63-.63.64.64,0,0,0-.64.63A.64.64,0,0,0,106,43.05Z"/><circle cx="110.26" cy="42.41" r="0.53"/><path d="M114.5,42.84a.43.43,0,1,0-.43-.43A.42.42,0,0,0,114.5,42.84Z"/><path d="M118.74,42.73a.32.32,0,1,0-.32-.32A.31.31,0,0,0,118.74,42.73Z"/><path d="M123,42.61a.2.2,0,1,0-.2-.2A.2.2,0,0,0,123,42.61Z"/><path d="M127.22,42.51a.09.09,0,0,0,.09-.1.09.09,0,0,0-.09-.09.1.1,0,0,0-.1.09A.1.1,0,0,0,127.22,42.51Z"/><path d="M131.46,42.43a0,0,0,0,0,0,0h0S131.45,42.43,131.46,42.43Z"/><path d="M4.25,46.68a0,0,0,0,0,0,0l0,0,0,0S4.24,46.68,4.25,46.68Z"/><path d="M8.49,46.78a.13.13,0,0,0,.13-.13.13.13,0,0,0-.26,0A.13.13,0,0,0,8.49,46.78Z"/><path d="M12.73,46.89a.24.24,0,0,0,.24-.24.23.23,0,0,0-.24-.23.23.23,0,0,0-.23.23A.23.23,0,0,0,12.73,46.89Z"/><path d="M17,47a.36.36,0,1,0,0-.71A.36.36,0,0,0,17,47Z"/><path d="M21.21,47.12a.47.47,0,1,0-.47-.47A.47.47,0,0,0,21.21,47.12Z"/><path d="M25.45,47.23a.58.58,0,1,0,0-1.15.58.58,0,0,0,0,1.15Z"/><path d="M29.69,47.35a.7.7,0,1,0-.69-.7A.7.7,0,0,0,29.69,47.35Z"/><path d="M33.93,47.45a.8.8,0,1,0-.8-.8A.8.8,0,0,0,33.93,47.45Z"/><circle cx="38.17" cy="46.65" r="0.89"/><path d="M42.41,47.65a1,1,0,0,0,0-2,1,1,0,0,0,0,2Z"/><path d="M46.65,47.75a1.1,1.1,0,1,0-1.09-1.1A1.1,1.1,0,0,0,46.65,47.75Z"/><circle cx="50.89" cy="46.65" r="1.18"/><path d="M55.13,47.9a1.25,1.25,0,1,0-1.24-1.25A1.25,1.25,0,0,0,55.13,47.9Z"/><path d="M59.37,48a1.3,1.3,0,1,0-1.29-1.3A1.3,1.3,0,0,0,59.37,48Z"/><path d="M63.61,48a1.34,1.34,0,1,0-1.34-1.34A1.34,1.34,0,0,0,63.61,48Z"/><path d="M67.86,48a1.36,1.36,0,1,0-1.36-1.36A1.36,1.36,0,0,0,67.86,48Z"/><path d="M72.1,48a1.34,1.34,0,1,0-1.35-1.34A1.34,1.34,0,0,0,72.1,48Z"/><path d="M76.34,48A1.31,1.31,0,1,0,75,46.65,1.31,1.31,0,0,0,76.34,48Z"/><path d="M80.58,47.9a1.25,1.25,0,1,0-1.25-1.25A1.25,1.25,0,0,0,80.58,47.9Z"/><circle cx="84.82" cy="46.65" r="1.18"/><path d="M89.06,47.76A1.11,1.11,0,1,0,88,46.65,1.11,1.11,0,0,0,89.06,47.76Z"/><path d="M93.3,47.67a1,1,0,1,0-1-1A1,1,0,0,0,93.3,47.67Z"/><path d="M97.54,47.56a.91.91,0,1,0-.91-.91A.9.9,0,0,0,97.54,47.56Z"/><path d="M101.78,47.45a.8.8,0,1,0-.8-.8A.8.8,0,0,0,101.78,47.45Z"/><path d="M106,47.36a.7.7,0,0,0,.7-.71.7.7,0,0,0-.7-.7.7.7,0,0,0-.71.7A.71.71,0,0,0,106,47.36Z"/><circle cx="110.26" cy="46.65" r="0.59"/><path d="M114.5,47.14a.49.49,0,0,0,0-1,.49.49,0,0,0,0,1Z"/><circle cx="118.74" cy="46.65" r="0.36"/><path d="M123,46.9a.25.25,0,1,0-.25-.25A.25.25,0,0,0,123,46.9Z"/><path d="M127.22,46.78a.13.13,0,0,0,.13-.13.13.13,0,0,0-.26,0A.13.13,0,0,0,127.22,46.78Z"/><path d="M131.46,46.68s0,0,0,0l0,0,0,0A0,0,0,0,0,131.46,46.68Z"/><path d="M4.25,50.94a0,0,0,0,0,0,0,0,0,0,0,0,0,0s0,0,0,0A.05.05,0,0,0,4.25,50.94Z"/><path d="M8.49,51.06a.17.17,0,0,0,.17-.17.17.17,0,0,0-.17-.16.16.16,0,0,0-.16.16A.16.16,0,0,0,8.49,51.06Z"/><path d="M12.73,51.18a.29.29,0,0,0,0-.57.29.29,0,0,0,0,.57Z"/><path d="M17,51.29a.39.39,0,0,0,.4-.4.4.4,0,1,0-.8,0A.39.39,0,0,0,17,51.29Z"/><path d="M21.21,51.41a.52.52,0,1,0-.51-.52A.52.52,0,0,0,21.21,51.41Z"/><path d="M25.45,51.53a.64.64,0,0,0,.64-.64.64.64,0,0,0-.64-.63.63.63,0,0,0-.63.63A.64.64,0,0,0,25.45,51.53Z"/><path d="M29.69,51.64a.75.75,0,1,0-.74-.75A.75.75,0,0,0,29.69,51.64Z"/><path d="M33.93,51.75a.86.86,0,1,0-.86-.86A.85.85,0,0,0,33.93,51.75Z"/><path d="M38.17,51.86a1,1,0,1,0-1-1A1,1,0,0,0,38.17,51.86Z"/><path d="M42.41,52a1.07,1.07,0,1,0-1.07-1.07A1.06,1.06,0,0,0,42.41,52Z"/><path d="M46.65,52.07a1.18,1.18,0,1,0,0-2.35,1.18,1.18,0,0,0,0,2.35Z"/><path d="M50.89,52.16a1.27,1.27,0,1,0-1.27-1.27A1.26,1.26,0,0,0,50.89,52.16Z"/><path d="M55.13,52.25a1.36,1.36,0,1,0-1.35-1.36A1.36,1.36,0,0,0,55.13,52.25Z"/><path d="M59.37,52.31A1.42,1.42,0,1,0,58,50.89,1.43,1.43,0,0,0,59.37,52.31Z"/><path d="M63.61,52.35a1.46,1.46,0,1,0-1.45-1.46A1.46,1.46,0,0,0,63.61,52.35Z"/><path d="M67.86,52.36a1.47,1.47,0,1,0-1.47-1.47A1.46,1.46,0,0,0,67.86,52.36Z"/><path d="M72.1,52.35a1.46,1.46,0,1,0-1.46-1.46A1.45,1.45,0,0,0,72.1,52.35Z"/><path d="M76.34,52.32a1.43,1.43,0,1,0-1.43-1.43A1.43,1.43,0,0,0,76.34,52.32Z"/><path d="M80.58,52.25a1.36,1.36,0,1,0-1.36-1.36A1.36,1.36,0,0,0,80.58,52.25Z"/><path d="M84.82,52.16a1.27,1.27,0,1,0-1.27-1.27A1.27,1.27,0,0,0,84.82,52.16Z"/><path d="M89.06,52.08a1.19,1.19,0,1,0-1.19-1.19A1.18,1.18,0,0,0,89.06,52.08Z"/><path d="M93.3,52a1.09,1.09,0,1,0-1.09-1.09A1.09,1.09,0,0,0,93.3,52Z"/><path d="M97.54,51.87a1,1,0,1,0-1-1A1,1,0,0,0,97.54,51.87Z"/><path d="M101.78,51.76a.87.87,0,1,0-.87-.87A.87.87,0,0,0,101.78,51.76Z"/><path d="M106,51.65a.76.76,0,1,0-.76-.76A.76.76,0,0,0,106,51.65Z"/><path d="M110.26,51.53a.64.64,0,0,0,.63-.64.63.63,0,0,0-.63-.63.64.64,0,0,0-.64.63A.64.64,0,0,0,110.26,51.53Z"/><path d="M114.5,51.42a.53.53,0,1,0,0-1.05.53.53,0,1,0,0,1.05Z"/><path d="M118.74,51.31a.42.42,0,0,0,0-.83.42.42,0,0,0,0,.83Z"/><path d="M123,51.19a.3.3,0,0,0,0-.59.3.3,0,1,0,0,.59Z"/><path d="M127.22,51.07a.17.17,0,0,0,.17-.18.17.17,0,0,0-.17-.17.18.18,0,0,0-.18.17A.18.18,0,0,0,127.22,51.07Z"/><path d="M131.46,51a.06.06,0,0,0,.06-.06.06.06,0,0,0-.12,0A.06.06,0,0,0,131.46,51Z"/><path d="M4.25,55.2a.07.07,0,0,0,.07-.07.07.07,0,1,0-.14,0A.07.07,0,0,0,4.25,55.2Z"/><path d="M8.49,55.32a.18.18,0,0,0,.19-.19A.18.18,0,0,0,8.49,55a.19.19,0,1,0,0,.37Z"/><path d="M12.73,55.45a.32.32,0,1,0,0-.63.32.32,0,1,0,0,.63Z"/><path d="M17,55.57a.44.44,0,0,0,.44-.44A.44.44,0,0,0,17,54.7a.43.43,0,0,0-.43.43A.44.44,0,0,0,17,55.57Z"/><path d="M21.21,55.69a.56.56,0,1,0-.55-.56A.56.56,0,0,0,21.21,55.69Z"/><path d="M25.45,55.8a.67.67,0,1,0-.67-.67A.67.67,0,0,0,25.45,55.8Z"/><path d="M29.69,55.92a.79.79,0,1,0-.78-.79A.79.79,0,0,0,29.69,55.92Z"/><path d="M33.93,56a.91.91,0,1,0,0-1.81.91.91,0,0,0,0,1.81Z"/><path d="M38.17,56.16a1,1,0,1,0-1-1A1,1,0,0,0,38.17,56.16Z"/><path d="M42.41,56.28a1.15,1.15,0,1,0-1.14-1.15A1.15,1.15,0,0,0,42.41,56.28Z"/><path d="M46.65,56.38a1.25,1.25,0,1,0-1.24-1.25A1.25,1.25,0,0,0,46.65,56.38Z"/><path d="M50.89,56.49a1.36,1.36,0,1,0-1.35-1.36A1.36,1.36,0,0,0,50.89,56.49Z"/><path d="M55.13,56.57a1.44,1.44,0,1,0-1.43-1.44A1.43,1.43,0,0,0,55.13,56.57Z"/><path d="M59.37,56.65a1.52,1.52,0,1,0-1.51-1.52A1.52,1.52,0,0,0,59.37,56.65Z"/><path d="M63.61,56.71a1.58,1.58,0,1,0,0-3.15,1.58,1.58,0,0,0,0,3.15Z"/><path d="M67.86,56.73a1.6,1.6,0,1,0-1.6-1.6A1.59,1.59,0,0,0,67.86,56.73Z"/><path d="M72.1,56.71a1.58,1.58,0,1,0-1.58-1.58A1.57,1.57,0,0,0,72.1,56.71Z"/><path d="M76.34,56.66a1.53,1.53,0,1,0-1.53-1.53A1.52,1.52,0,0,0,76.34,56.66Z"/><path d="M80.58,56.58a1.45,1.45,0,1,0-1.45-1.45A1.45,1.45,0,0,0,80.58,56.58Z"/><path d="M84.82,56.49a1.36,1.36,0,1,0-1.36-1.36A1.36,1.36,0,0,0,84.82,56.49Z"/><path d="M89.06,56.38a1.25,1.25,0,1,0-1.25-1.25A1.25,1.25,0,0,0,89.06,56.38Z"/><path d="M93.3,56.28a1.15,1.15,0,1,0-1.14-1.15A1.15,1.15,0,0,0,93.3,56.28Z"/><circle cx="97.54" cy="55.13" r="1.03"/><path d="M101.78,56.05a.92.92,0,1,0-.92-.92A.92.92,0,0,0,101.78,56.05Z"/><path d="M106,55.93a.8.8,0,1,0-.8-.8A.8.8,0,0,0,106,55.93Z"/><path d="M110.26,55.82a.69.69,0,0,0,0-1.37.69.69,0,0,0,0,1.37Z"/><path d="M114.5,55.7a.57.57,0,0,0,0-1.13.57.57,0,1,0,0,1.13Z"/><circle cx="118.74" cy="55.13" r="0.45"/><path d="M123,55.46a.33.33,0,1,0-.33-.33A.33.33,0,0,0,123,55.46Z"/><path d="M127.22,55.33a.2.2,0,1,0-.2-.2A.2.2,0,0,0,127.22,55.33Z"/><path d="M131.46,55.22a.09.09,0,0,0,.08-.09.09.09,0,0,0-.08-.08.08.08,0,0,0-.08.08A.08.08,0,0,0,131.46,55.22Z"/><path d="M4.25,59.47a.1.1,0,0,0,.1-.1.1.1,0,0,0-.1-.09.09.09,0,0,0-.09.09A.09.09,0,0,0,4.25,59.47Z"/><path d="M8.49,59.59a.21.21,0,0,0,.21-.22.21.21,0,0,0-.21-.21.22.22,0,0,0,0,.43Z"/><path d="M12.73,59.72a.35.35,0,1,0-.34-.35A.35.35,0,0,0,12.73,59.72Z"/><path d="M17,59.83a.46.46,0,1,0-.46-.46A.46.46,0,0,0,17,59.83Z"/><path d="M21.21,60a.58.58,0,1,0,0-1.15.58.58,0,0,0,0,1.15Z"/><path d="M25.45,60.08a.71.71,0,1,0,0-1.41.71.71,0,0,0,0,1.41Z"/><path d="M29.69,60.2a.83.83,0,1,0-.82-.83A.83.83,0,0,0,29.69,60.2Z"/><path d="M33.93,60.32a.95.95,0,1,0-.94-1A.95.95,0,0,0,33.93,60.32Z"/><path d="M38.17,60.44a1.07,1.07,0,1,0-1.07-1.07A1.06,1.06,0,0,0,38.17,60.44Z"/><path d="M42.41,60.56a1.19,1.19,0,1,0-1.18-1.19A1.19,1.19,0,0,0,42.41,60.56Z"/><path d="M46.65,60.67a1.3,1.3,0,1,0-1.29-1.3A1.3,1.3,0,0,0,46.65,60.67Z"/><path d="M50.89,60.79a1.42,1.42,0,1,0-1.41-1.42A1.43,1.43,0,0,0,50.89,60.79Z"/><path d="M55.13,60.89a1.52,1.52,0,1,0-1.51-1.52A1.52,1.52,0,0,0,55.13,60.89Z"/><path d="M59.37,61a1.62,1.62,0,1,0-1.61-1.62A1.63,1.63,0,0,0,59.37,61Z"/><path d="M63.61,61.07a1.7,1.7,0,1,0-1.69-1.7A1.7,1.7,0,0,0,63.61,61.07Z"/><path d="M67.86,61.09a1.72,1.72,0,1,0-1.72-1.72A1.72,1.72,0,0,0,67.86,61.09Z"/><path d="M72.1,61.07a1.7,1.7,0,1,0-1.7-1.7A1.7,1.7,0,0,0,72.1,61.07Z"/><circle cx="76.34" cy="59.37" r="1.62"/><path d="M80.58,60.9a1.53,1.53,0,1,0-1.53-1.53A1.52,1.52,0,0,0,80.58,60.9Z"/><path d="M84.82,60.8a1.43,1.43,0,1,0-1.43-1.43A1.43,1.43,0,0,0,84.82,60.8Z"/><path d="M89.06,60.68a1.31,1.31,0,1,0-1.31-1.31A1.3,1.3,0,0,0,89.06,60.68Z"/><path d="M93.3,60.56a1.19,1.19,0,1,0-1.19-1.19A1.18,1.18,0,0,0,93.3,60.56Z"/><path d="M97.54,60.46a1.09,1.09,0,1,0-1.09-1.09A1.09,1.09,0,0,0,97.54,60.46Z"/><circle cx="101.78" cy="59.37" r="0.95"/><path d="M106,60.21a.84.84,0,1,0-.84-.84A.84.84,0,0,0,106,60.21Z"/><path d="M110.26,60.09a.72.72,0,1,0-.72-.72A.71.71,0,0,0,110.26,60.09Z"/><circle cx="114.5" cy="59.37" r="0.59"/><path d="M118.74,59.85a.48.48,0,0,0,.47-.48.47.47,0,1,0-.94,0A.48.48,0,0,0,118.74,59.85Z"/><path d="M123,59.73a.36.36,0,1,0-.36-.36A.36.36,0,0,0,123,59.73Z"/><circle cx="127.22" cy="59.37" r="0.22"/><path d="M131.46,59.48a.1.1,0,0,0,.1-.11.1.1,0,0,0-.1-.1.11.11,0,0,0-.11.1A.11.11,0,0,0,131.46,59.48Z"/><path d="M135.7,59.39a0,0,0,0,0,0,0h0S135.69,59.39,135.7,59.39Z"/><path d="M0,63.63s0,0,0,0H0Z"/><path d="M4.25,63.72a.11.11,0,0,0,.11-.11.11.11,0,0,0-.11-.1.1.1,0,0,0-.1.1A.1.1,0,0,0,4.25,63.72Z"/><circle cx="8.49" cy="63.61" r="0.22"/><path d="M12.73,64a.36.36,0,1,0,0-.71.36.36,0,0,0,0,.71Z"/><path d="M17,64.09a.48.48,0,1,0-.47-.48A.48.48,0,0,0,17,64.09Z"/><path d="M21.21,64.21a.6.6,0,1,0-.6-.6A.6.6,0,0,0,21.21,64.21Z"/><path d="M25.45,64.34a.73.73,0,1,0-.73-.73A.72.72,0,0,0,25.45,64.34Z"/><path d="M29.69,64.46a.85.85,0,1,0-.84-.85A.85.85,0,0,0,29.69,64.46Z"/><path d="M33.93,64.58a1,1,0,1,0-1-1A1,1,0,0,0,33.93,64.58Z"/><path d="M38.17,64.71a1.1,1.1,0,1,0-1.09-1.1A1.1,1.1,0,0,0,38.17,64.71Z"/><path d="M42.41,64.83a1.22,1.22,0,1,0-1.21-1.22A1.22,1.22,0,0,0,42.41,64.83Z"/><circle cx="46.65" cy="63.61" r="1.34"/><path d="M50.89,65.07a1.46,1.46,0,1,0-1.45-1.46A1.46,1.46,0,0,0,50.89,65.07Z"/><path d="M55.13,65.19a1.58,1.58,0,1,0-1.57-1.58A1.58,1.58,0,0,0,55.13,65.19Z"/><path d="M59.37,65.31a1.7,1.7,0,1,0-1.69-1.7A1.7,1.7,0,0,0,59.37,65.31Z"/><circle cx="63.61" cy="63.61" r="1.79"/><path d="M67.86,65.45A1.84,1.84,0,1,0,66,63.61,1.83,1.83,0,0,0,67.86,65.45Z"/><path d="M72.1,65.41a1.8,1.8,0,1,0-1.8-1.8A1.79,1.79,0,0,0,72.1,65.41Z"/><circle cx="76.34" cy="63.61" r="1.7"/><path d="M80.58,65.2A1.59,1.59,0,1,0,79,63.61,1.59,1.59,0,0,0,80.58,65.2Z"/><path d="M84.82,65.08a1.47,1.47,0,1,0-1.47-1.47A1.47,1.47,0,0,0,84.82,65.08Z"/><path d="M89.06,65a1.36,1.36,0,1,0-1.36-1.36A1.36,1.36,0,0,0,89.06,65Z"/><path d="M93.3,64.84a1.23,1.23,0,1,0-1.23-1.23A1.23,1.23,0,0,0,93.3,64.84Z"/><path d="M97.54,64.72a1.11,1.11,0,1,0-1.11-1.11A1.1,1.1,0,0,0,97.54,64.72Z"/><circle cx="101.78" cy="63.61" r="0.98"/><path d="M106,64.47a.86.86,0,1,0-.86-.86A.86.86,0,0,0,106,64.47Z"/><circle cx="110.26" cy="63.61" r="0.73"/><path d="M114.5,64.23a.62.62,0,0,0,0-1.23.62.62,0,0,0,0,1.23Z"/><path d="M118.74,64.1a.49.49,0,0,0,0-1,.49.49,0,0,0,0,1Z"/><circle cx="122.98" cy="63.61" r="0.36"/><path d="M127.22,63.85a.24.24,0,0,0,0-.47.24.24,0,1,0,0,.47Z"/><path d="M131.46,63.73a.12.12,0,0,0,.12-.12.12.12,0,0,0-.12-.11.11.11,0,0,0-.12.11A.12.12,0,0,0,131.46,63.73Z"/><path d="M135.7,63.63v0h0S135.69,63.63,135.7,63.63Z"/><path d="M0,67.87a0,0,0,0,0,0,0s0,0,0,0a0,0,0,0,0,0,0Z"/><path d="M4.25,68a.11.11,0,0,0,.11-.1.11.11,0,0,0-.11-.11.1.1,0,0,0-.1.11A.1.1,0,0,0,4.25,68Z"/><path d="M8.49,68.09a.24.24,0,1,0,0-.47.24.24,0,0,0,0,.47Z"/><path d="M12.73,68.21a.36.36,0,1,0-.35-.35A.36.36,0,0,0,12.73,68.21Z"/><path d="M17,68.34a.49.49,0,0,0,0-1,.49.49,0,0,0,0,1Z"/><path d="M21.21,68.45a.6.6,0,1,0-.6-.59A.59.59,0,0,0,21.21,68.45Z"/><path d="M25.45,68.58a.73.73,0,1,0,0-1.45.73.73,0,1,0,0,1.45Z"/><path d="M29.69,68.7a.85.85,0,1,0-.84-.84A.85.85,0,0,0,29.69,68.7Z"/><path d="M33.93,68.83a1,1,0,1,0-1-1A1,1,0,0,0,33.93,68.83Z"/><path d="M38.17,69a1.11,1.11,0,1,0-1.1-1.1A1.11,1.11,0,0,0,38.17,69Z"/><path d="M42.41,69.08a1.23,1.23,0,1,0-1.22-1.22A1.23,1.23,0,0,0,42.41,69.08Z"/><path d="M46.65,69.21a1.36,1.36,0,1,0-1.35-1.35A1.36,1.36,0,0,0,46.65,69.21Z"/><path d="M50.89,69.32a1.47,1.47,0,1,0-1.47-1.46A1.46,1.46,0,0,0,50.89,69.32Z"/><path d="M55.13,69.45a1.6,1.6,0,1,0-1.59-1.59A1.59,1.59,0,0,0,55.13,69.45Z"/><path d="M59.37,69.57a1.72,1.72,0,1,0-1.71-1.71A1.72,1.72,0,0,0,59.37,69.57Z"/><path d="M63.61,69.69a1.84,1.84,0,1,0-1.83-1.83A1.83,1.83,0,0,0,63.61,69.69Z"/><circle cx="67.86" cy="67.86" r="1.93"/><circle cx="72.1" cy="67.86" r="1.85"/><path d="M76.34,69.58a1.73,1.73,0,1,0-1.73-1.72A1.72,1.72,0,0,0,76.34,69.58Z"/><path d="M80.58,69.47A1.62,1.62,0,1,0,79,67.86,1.62,1.62,0,0,0,80.58,69.47Z"/><circle cx="84.82" cy="67.86" r="1.48"/><path d="M89.06,69.22a1.37,1.37,0,1,0-1.37-1.36A1.36,1.36,0,0,0,89.06,69.22Z"/><path d="M93.3,69.09a1.24,1.24,0,1,0-1.24-1.23A1.23,1.23,0,0,0,93.3,69.09Z"/><circle cx="97.54" cy="67.86" r="1.12"/><path d="M101.78,68.84a1,1,0,1,0-1-1A1,1,0,0,0,101.78,68.84Z"/><path d="M106,68.71a.86.86,0,1,0-.86-.85A.86.86,0,0,0,106,68.71Z"/><path d="M110.26,68.6a.75.75,0,1,0-.74-.74A.74.74,0,0,0,110.26,68.6Z"/><circle cx="114.5" cy="67.86" r="0.61"/><path d="M118.74,68.35a.5.5,0,1,0-.5-.49A.49.49,0,0,0,118.74,68.35Z"/><circle cx="122.98" cy="67.86" r="0.36"/><path d="M127.22,68.1a.25.25,0,0,0,0-.49.25.25,0,1,0,0,.49Z"/><path d="M131.46,68a.12.12,0,0,0,.12-.11.12.12,0,0,0-.12-.12.12.12,0,0,0-.12.12A.11.11,0,0,0,131.46,68Z"/><path d="M135.7,67.87h0a0,0,0,0,0,0,0s0,0,0,0A0,0,0,0,0,135.7,67.87Z"/><path d="M0,72.11a0,0,0,0,0,0,0s0,0,0,0v0Z"/><path d="M4.25,72.2a.11.11,0,0,0,.11-.1A.11.11,0,0,0,4.25,72a.1.1,0,0,0-.1.11A.1.1,0,0,0,4.25,72.2Z"/><circle cx="8.49" cy="72.1" r="0.22"/><path d="M12.73,72.45a.36.36,0,1,0-.35-.35A.36.36,0,0,0,12.73,72.45Z"/><path d="M17,72.58a.49.49,0,0,0,0-1,.49.49,0,0,0,0,1Z"/><path d="M21.21,72.69a.6.6,0,1,0-.6-.59A.59.59,0,0,0,21.21,72.69Z"/><path d="M25.45,72.82a.73.73,0,1,0,0-1.45.73.73,0,1,0,0,1.45Z"/><path d="M29.69,72.94a.85.85,0,1,0-.84-.84A.85.85,0,0,0,29.69,72.94Z"/><path d="M33.93,73.06a1,1,0,1,0-1-1A1,1,0,0,0,33.93,73.06Z"/><path d="M38.17,73.19a1.1,1.1,0,1,0-1.09-1.09A1.09,1.09,0,0,0,38.17,73.19Z"/><path d="M42.41,73.31A1.22,1.22,0,1,0,41.2,72.1,1.21,1.21,0,0,0,42.41,73.31Z"/><circle cx="46.65" cy="72.1" r="1.34"/><circle cx="50.89" cy="72.1" r="1.46"/><path d="M55.13,73.67a1.58,1.58,0,1,0-1.57-1.57A1.57,1.57,0,0,0,55.13,73.67Z"/><path d="M59.37,73.79a1.7,1.7,0,1,0-1.69-1.69A1.7,1.7,0,0,0,59.37,73.79Z"/><path d="M63.61,73.89a1.8,1.8,0,1,0-1.79-1.79A1.79,1.79,0,0,0,63.61,73.89Z"/><circle cx="67.86" cy="72.1" r="1.85"/><path d="M72.1,73.89a1.8,1.8,0,1,0-1.8-1.79A1.79,1.79,0,0,0,72.1,73.89Z"/><circle cx="76.34" cy="72.1" r="1.7"/><path d="M80.58,73.68A1.59,1.59,0,1,0,79,72.1,1.58,1.58,0,0,0,80.58,73.68Z"/><path d="M84.82,73.57a1.47,1.47,0,1,0-1.47-1.47A1.47,1.47,0,0,0,84.82,73.57Z"/><path d="M89.06,73.45A1.36,1.36,0,1,0,87.7,72.1,1.36,1.36,0,0,0,89.06,73.45Z"/><path d="M93.3,73.32a1.23,1.23,0,1,0-1.23-1.22A1.22,1.22,0,0,0,93.3,73.32Z"/><path d="M97.54,73.2a1.11,1.11,0,1,0-1.11-1.1A1.1,1.1,0,0,0,97.54,73.2Z"/><circle cx="101.78" cy="72.1" r="0.98"/><path d="M106,73a.86.86,0,1,0-.86-.85A.86.86,0,0,0,106,73Z"/><path d="M110.26,72.84a.75.75,0,1,0-.74-.74A.74.74,0,0,0,110.26,72.84Z"/><circle cx="114.5" cy="72.1" r="0.61"/><path d="M118.74,72.58a.49.49,0,1,0-.48-.48A.48.48,0,0,0,118.74,72.58Z"/><circle cx="122.98" cy="72.1" r="0.36"/><path d="M127.22,72.33a.23.23,0,0,0,.23-.23.23.23,0,0,0-.23-.24.24.24,0,0,0-.24.24A.23.23,0,0,0,127.22,72.33Z"/><path d="M131.46,72.21a.12.12,0,0,0,.12-.11.12.12,0,0,0-.12-.12.12.12,0,0,0-.12.12A.11.11,0,0,0,131.46,72.21Z"/><path d="M135.7,72.11h0v0s0,0,0,0A0,0,0,0,0,135.7,72.11Z"/><path d="M4.25,76.43a.1.1,0,0,0,.1-.09.1.1,0,0,0-.1-.1.09.09,0,0,0-.09.1A.09.09,0,0,0,4.25,76.43Z"/><path d="M8.49,76.55a.21.21,0,0,0,.21-.21.21.21,0,0,0-.21-.22.22.22,0,0,0,0,.43Z"/><path d="M12.73,76.68a.35.35,0,1,0-.34-.34A.34.34,0,0,0,12.73,76.68Z"/><path d="M17,76.79a.46.46,0,1,0,0-.91.46.46,0,1,0,0,.91Z"/><circle cx="21.21" cy="76.34" r="0.59"/><path d="M25.45,77a.7.7,0,0,0,.71-.7.71.71,0,0,0-.71-.71.7.7,0,0,0-.7.71A.7.7,0,0,0,25.45,77Z"/><path d="M29.69,77.16a.83.83,0,1,0-.82-.82A.83.83,0,0,0,29.69,77.16Z"/><path d="M33.93,77.29a1,1,0,1,0-1-1A1,1,0,0,0,33.93,77.29Z"/><path d="M38.17,77.41a1.07,1.07,0,1,0-1.07-1.07A1.07,1.07,0,0,0,38.17,77.41Z"/><path d="M42.41,77.52a1.19,1.19,0,1,0-1.18-1.18A1.18,1.18,0,0,0,42.41,77.52Z"/><path d="M46.65,77.64a1.31,1.31,0,1,0-1.3-1.3A1.31,1.31,0,0,0,46.65,77.64Z"/><circle cx="50.89" cy="76.34" r="1.42"/><path d="M55.13,77.86a1.53,1.53,0,1,0-1.52-1.52A1.52,1.52,0,0,0,55.13,77.86Z"/><circle cx="59.37" cy="76.34" r="1.62"/><circle cx="63.61" cy="76.34" r="1.7"/><circle cx="67.86" cy="76.34" r="1.73"/><circle cx="72.1" cy="76.34" r="1.7"/><path d="M76.34,78a1.64,1.64,0,1,0-1.64-1.63A1.63,1.63,0,0,0,76.34,78Z"/><path d="M80.58,77.86a1.53,1.53,0,1,0-1.53-1.52A1.52,1.52,0,0,0,80.58,77.86Z"/><circle cx="84.82" cy="76.34" r="1.42"/><circle cx="89.06" cy="76.34" r="1.32"/><circle cx="93.3" cy="76.34" r="1.2"/><path d="M97.54,77.42a1.09,1.09,0,1,0-1.09-1.08A1.09,1.09,0,0,0,97.54,77.42Z"/><circle cx="101.78" cy="76.34" r="0.95"/><circle cx="106.02" cy="76.34" r="0.83"/><path d="M110.26,77.05a.72.72,0,1,0-.72-.71A.71.71,0,0,0,110.26,77.05Z"/><circle cx="114.5" cy="76.34" r="0.59"/><path d="M118.74,76.81a.47.47,0,1,0-.47-.47A.47.47,0,0,0,118.74,76.81Z"/><path d="M123,76.69a.36.36,0,0,0,0-.71.36.36,0,1,0,0,.71Z"/><circle cx="127.22" cy="76.34" r="0.22"/><path d="M131.46,76.44a.1.1,0,0,0,.1-.1.1.1,0,0,0-.1-.11.11.11,0,0,0-.11.11A.11.11,0,0,0,131.46,76.44Z"/><path d="M135.7,76.35h0a0,0,0,0,0,0,0s0,0,0,0Z"/><path d="M4.25,80.65a.08.08,0,0,0,.07-.07.07.07,0,0,0-.14,0A.08.08,0,0,0,4.25,80.65Z"/><circle cx="8.49" cy="80.58" r="0.2"/><path d="M12.73,80.89a.32.32,0,1,0,0-.63.32.32,0,1,0,0,.63Z"/><path d="M17,81a.44.44,0,0,0,.44-.43.44.44,0,0,0-.44-.44.44.44,0,0,0-.43.44A.43.43,0,0,0,17,81Z"/><path d="M21.21,81.13a.56.56,0,1,0-.55-.55A.56.56,0,0,0,21.21,81.13Z"/><path d="M25.45,81.26a.69.69,0,0,0,0-1.37.69.69,0,0,0,0,1.37Z"/><path d="M29.69,81.38a.8.8,0,1,0-.8-.8A.8.8,0,0,0,29.69,81.38Z"/><path d="M33.93,81.48a.91.91,0,1,0-.9-.9A.9.9,0,0,0,33.93,81.48Z"/><circle cx="38.17" cy="80.58" r="1.03"/><path d="M42.41,81.72a1.14,1.14,0,1,0-1.14-1.14A1.14,1.14,0,0,0,42.41,81.72Z"/><path d="M46.65,81.82a1.25,1.25,0,1,0-1.24-1.24A1.25,1.25,0,0,0,46.65,81.82Z"/><path d="M50.89,81.93a1.36,1.36,0,1,0-1.35-1.35A1.36,1.36,0,0,0,50.89,81.93Z"/><path d="M55.13,82a1.45,1.45,0,1,0-1.44-1.44A1.45,1.45,0,0,0,55.13,82Z"/><path d="M59.37,82.1a1.53,1.53,0,1,0-1.52-1.52A1.52,1.52,0,0,0,59.37,82.1Z"/><circle cx="63.61" cy="80.58" r="1.59"/><path d="M67.86,82.19a1.62,1.62,0,1,0-1.62-1.61A1.62,1.62,0,0,0,67.86,82.19Z"/><circle cx="72.1" cy="80.58" r="1.59"/><path d="M76.34,82.1a1.53,1.53,0,1,0-1.53-1.52A1.52,1.52,0,0,0,76.34,82.1Z"/><circle cx="80.58" cy="80.58" r="1.46"/><circle cx="84.82" cy="80.58" r="1.36"/><circle cx="89.06" cy="80.58" r="1.26"/><circle cx="93.3" cy="80.58" r="1.15"/><circle cx="97.54" cy="80.58" r="1.03"/><circle cx="101.78" cy="80.58" r="0.92"/><path d="M106,81.38a.8.8,0,1,0-.8-.8A.8.8,0,0,0,106,81.38Z"/><path d="M110.26,81.26a.69.69,0,1,0-.68-.68A.69.69,0,0,0,110.26,81.26Z"/><circle cx="114.5" cy="80.58" r="0.56"/><circle cx="118.74" cy="80.58" r="0.45"/><path d="M123,80.9a.33.33,0,1,0-.33-.32A.32.32,0,0,0,123,80.9Z"/><path d="M127.22,80.78a.2.2,0,1,0-.2-.2A.2.2,0,0,0,127.22,80.78Z"/><path d="M131.46,80.66a.09.09,0,0,0,.08-.08.09.09,0,0,0-.08-.09.08.08,0,0,0-.08.09A.08.08,0,0,0,131.46,80.66Z"/><path d="M4.25,84.86a0,0,0,0,0,0,0,0,0,0,0,0,0,0,.05.05,0,0,0,0,0S4.23,84.86,4.25,84.86Z"/><circle cx="8.49" cy="84.82" r="0.16"/><circle cx="12.73" cy="84.82" r="0.28"/><path d="M17,85.22a.4.4,0,1,0-.4-.4A.4.4,0,0,0,17,85.22Z"/><path d="M21.21,85.33a.52.52,0,1,0-.51-.51A.51.51,0,0,0,21.21,85.33Z"/><path d="M25.45,85.45a.64.64,0,0,0,.64-.63.64.64,0,0,0-.64-.64.64.64,0,0,0-.63.64A.63.63,0,0,0,25.45,85.45Z"/><path d="M29.69,85.57a.76.76,0,1,0-.75-.75A.76.76,0,0,0,29.69,85.57Z"/><path d="M33.93,85.67a.86.86,0,1,0-.86-.85A.85.85,0,0,0,33.93,85.67Z"/><circle cx="38.17" cy="84.82" r="0.98"/><path d="M42.41,85.9a1.09,1.09,0,1,0-1.08-1.08A1.09,1.09,0,0,0,42.41,85.9Z"/><circle cx="46.65" cy="84.82" r="1.18"/><path d="M50.89,86.09a1.27,1.27,0,1,0-1.27-1.27A1.27,1.27,0,0,0,50.89,86.09Z"/><path d="M55.13,86.17a1.36,1.36,0,1,0-1.35-1.35A1.36,1.36,0,0,0,55.13,86.17Z"/><circle cx="59.37" cy="84.82" r="1.42"/><path d="M63.61,86.29a1.47,1.47,0,1,0-1.47-1.47A1.47,1.47,0,0,0,63.61,86.29Z"/><circle cx="67.86" cy="84.82" r="1.48"/><path d="M72.1,86.29a1.47,1.47,0,1,0-1.47-1.47A1.46,1.46,0,0,0,72.1,86.29Z"/><circle cx="76.34" cy="84.82" r="1.42"/><circle cx="80.58" cy="84.82" r="1.36"/><circle cx="84.82" cy="84.82" r="1.28"/><path d="M89.06,86a1.19,1.19,0,1,0-1.19-1.18A1.18,1.18,0,0,0,89.06,86Z"/><circle cx="93.3" cy="84.82" r="1.09"/><path d="M97.54,85.8a1,1,0,1,0-1-1A1,1,0,0,0,97.54,85.8Z"/><circle cx="101.78" cy="84.82" r="0.87"/><path d="M106,85.58a.77.77,0,1,0-.77-.76A.76.76,0,0,0,106,85.58Z"/><circle cx="110.26" cy="84.82" r="0.65"/><circle cx="114.5" cy="84.82" r="0.53"/><path d="M118.74,85.23a.42.42,0,0,0,0-.83.42.42,0,0,0,0,.83Z"/><path d="M123,85.11a.3.3,0,0,0,0-.59.3.3,0,1,0,0,.59Z"/><path d="M127.22,85a.17.17,0,0,0,.17-.17.17.17,0,0,0-.17-.18.18.18,0,0,0-.18.18A.18.18,0,0,0,127.22,85Z"/><path d="M131.46,84.87a.06.06,0,0,0,.06-.05.06.06,0,0,0-.12,0A.06.06,0,0,0,131.46,84.87Z"/><circle cx="4.25" cy="89.06" r="0.02"/><path d="M8.49,89.19a.13.13,0,0,0,.13-.13.13.13,0,0,0-.26,0A.13.13,0,0,0,8.49,89.19Z"/><path d="M12.73,89.3a.25.25,0,1,0-.24-.24A.25.25,0,0,0,12.73,89.3Z"/><circle cx="16.97" cy="89.06" r="0.36"/><path d="M21.21,89.53a.47.47,0,1,0-.47-.47A.47.47,0,0,0,21.21,89.53Z"/><path d="M25.45,89.64a.59.59,0,1,0-.58-.58A.58.58,0,0,0,25.45,89.64Z"/><path d="M29.69,89.75a.7.7,0,1,0-.69-.69A.69.69,0,0,0,29.69,89.75Z"/><path d="M33.93,89.86a.8.8,0,1,0-.8-.8A.8.8,0,0,0,33.93,89.86Z"/><path d="M38.17,90a.91.91,0,1,0-.9-.9A.9.9,0,0,0,38.17,90Z"/><path d="M42.41,90.07a1,1,0,1,0-1-1A1,1,0,0,0,42.41,90.07Z"/><path d="M46.65,90.16a1.11,1.11,0,1,0-1.1-1.1A1.11,1.11,0,0,0,46.65,90.16Z"/><path d="M50.89,90.24a1.19,1.19,0,1,0-1.18-1.18A1.18,1.18,0,0,0,50.89,90.24Z"/><path d="M55.13,90.3a1.25,1.25,0,1,0-1.24-1.24A1.25,1.25,0,0,0,55.13,90.3Z"/><path d="M59.37,90.36a1.31,1.31,0,1,0-1.3-1.3A1.3,1.3,0,0,0,59.37,90.36Z"/><path d="M63.61,90.41a1.36,1.36,0,1,0-1.35-1.35A1.36,1.36,0,0,0,63.61,90.41Z"/><circle cx="67.86" cy="89.06" r="1.36"/><path d="M72.1,90.41a1.36,1.36,0,1,0-1.36-1.35A1.36,1.36,0,0,0,72.1,90.41Z"/><circle cx="76.34" cy="89.06" r="1.32"/><circle cx="80.58" cy="89.06" r="1.26"/><path d="M84.82,90.24a1.19,1.19,0,1,0-1.19-1.18A1.18,1.18,0,0,0,84.82,90.24Z"/><path d="M89.06,90.16a1.11,1.11,0,0,0,0-2.21,1.11,1.11,0,1,0,0,2.21Z"/><circle cx="93.3" cy="89.06" r="1.01"/><circle cx="97.54" cy="89.06" r="0.92"/><circle cx="101.78" cy="89.06" r="0.81"/><circle cx="106.02" cy="89.06" r="0.71"/><path d="M110.26,89.66a.6.6,0,0,0,.6-.6.6.6,0,0,0-1.2,0A.6.6,0,0,0,110.26,89.66Z"/><path d="M114.5,89.54a.49.49,0,1,0-.48-.48A.48.48,0,0,0,114.5,89.54Z"/><path d="M118.74,89.43a.38.38,0,0,0,0-.75.38.38,0,1,0,0,.75Z"/><path d="M123,89.31a.26.26,0,1,0,0-.51.26.26,0,1,0,0,.51Z"/><circle cx="127.22" cy="89.06" r="0.14"/><path d="M131.46,89.08a0,0,0,0,0,0,0s0,0,0,0a0,0,0,0,0,0,0Z"/><circle cx="8.49" cy="93.3" r="0.08"/><path d="M12.73,93.5a.2.2,0,1,0-.2-.2A.2.2,0,0,0,12.73,93.5Z"/><circle cx="16.97" cy="93.3" r="0.31"/><path d="M21.21,93.72a.43.43,0,1,0-.42-.42A.42.42,0,0,0,21.21,93.72Z"/><path d="M25.45,93.83A.53.53,0,0,0,26,93.3a.52.52,0,0,0-.53-.53.53.53,0,0,0-.53.53A.53.53,0,0,0,25.45,93.83Z"/><path d="M29.69,93.93a.64.64,0,0,0,.64-.63.64.64,0,0,0-.64-.64.64.64,0,0,0-.63.64A.63.63,0,0,0,29.69,93.93Z"/><path d="M33.93,94a.73.73,0,1,0-.73-.73A.73.73,0,0,0,33.93,94Z"/><path d="M38.17,94.13A.84.84,0,0,0,39,93.3a.85.85,0,0,0-.84-.84.84.84,0,0,0-.83.84A.83.83,0,0,0,38.17,94.13Z"/><path d="M42.41,94.21a.92.92,0,1,0-.91-.91A.92.92,0,0,0,42.41,94.21Z"/><circle cx="46.65" cy="93.3" r="1.01"/><path d="M50.89,94.38a1.09,1.09,0,1,0-1.08-1.08A1.09,1.09,0,0,0,50.89,94.38Z"/><circle cx="55.13" cy="93.3" r="1.14"/><path d="M59.37,94.48a1.19,1.19,0,1,0-1.18-1.18A1.18,1.18,0,0,0,59.37,94.48Z"/><circle cx="63.61" cy="93.3" r="1.22"/><circle cx="67.86" cy="93.3" r="1.23"/><circle cx="72.1" cy="93.3" r="1.22"/><circle cx="76.34" cy="93.3" r="1.2"/><circle cx="80.58" cy="93.3" r="1.15"/><circle cx="84.82" cy="93.3" r="1.09"/><circle cx="89.06" cy="93.3" r="1.01"/><circle cx="93.3" cy="93.3" r="0.93"/><circle cx="97.54" cy="93.3" r="0.83"/><path d="M101.78,94a.74.74,0,1,0-.74-.74A.74.74,0,0,0,101.78,94Z"/><path d="M106,93.93a.63.63,0,0,0,.63-.63.64.64,0,0,0-.63-.64.64.64,0,0,0-.64.64A.64.64,0,0,0,106,93.93Z"/><path d="M110.26,93.84a.54.54,0,1,0-.54-.54A.54.54,0,0,0,110.26,93.84Z"/><path d="M114.5,93.73a.43.43,0,0,0,.43-.43.44.44,0,0,0-.43-.44.44.44,0,0,0-.44.44A.44.44,0,0,0,114.5,93.73Z"/><path d="M118.74,93.61a.32.32,0,0,0,0-.63.32.32,0,1,0,0,.63Z"/><path d="M123,93.5a.2.2,0,1,0-.2-.2A.2.2,0,0,0,123,93.5Z"/><path d="M127.22,93.39a.09.09,0,0,0,.09-.09.09.09,0,0,0-.09-.1.1.1,0,0,0-.1.1A.1.1,0,0,0,127.22,93.39Z"/><path d="M131.46,93.31h0v0s0,0,0,0A0,0,0,0,0,131.46,93.31Z"/><path d="M8.49,97.57s0,0,0,0a0,0,0,0,0,0,0s0,0,0,0A0,0,0,0,0,8.49,97.57Z"/><circle cx="12.73" cy="97.54" r="0.14"/><path d="M17,97.78a.25.25,0,1,0-.24-.24A.25.25,0,0,0,17,97.78Z"/><path d="M21.21,97.89a.36.36,0,1,0-.35-.35A.36.36,0,0,0,21.21,97.89Z"/><path d="M25.45,98a.46.46,0,0,0,.46-.46.45.45,0,0,0-.46-.46.46.46,0,0,0-.46.46A.47.47,0,0,0,25.45,98Z"/><path d="M29.69,98.09a.56.56,0,1,0-.55-.55A.56.56,0,0,0,29.69,98.09Z"/><path d="M33.93,98.19a.66.66,0,1,0,0-1.31.66.66,0,1,0,0,1.31Z"/><path d="M38.17,98.28a.74.74,0,1,0-.74-.74A.74.74,0,0,0,38.17,98.28Z"/><path d="M42.41,98.37a.84.84,0,0,0,.84-.83.85.85,0,0,0-.84-.84.84.84,0,0,0-.83.84A.83.83,0,0,0,42.41,98.37Z"/><path d="M46.65,98.44a.91.91,0,1,0-.9-.9A.9.9,0,0,0,46.65,98.44Z"/><circle cx="50.89" cy="97.54" r="0.98"/><circle cx="55.13" cy="97.54" r="1.03"/><path d="M59.37,98.62a1.09,1.09,0,1,0-1.08-1.08A1.09,1.09,0,0,0,59.37,98.62Z"/><path d="M63.61,98.64a1.11,1.11,0,1,0-1.1-1.1A1.1,1.1,0,0,0,63.61,98.64Z"/><circle cx="67.86" cy="97.54" r="1.12"/><path d="M72.1,98.64A1.11,1.11,0,1,0,71,97.54,1.1,1.1,0,0,0,72.1,98.64Z"/><circle cx="76.34" cy="97.54" r="1.08"/><circle cx="80.58" cy="97.54" r="1.03"/><circle cx="84.82" cy="97.54" r="0.99"/><circle cx="89.06" cy="97.54" r="0.92"/><circle cx="93.3" cy="97.54" r="0.83"/><circle cx="97.54" cy="97.54" r="0.75"/><path d="M101.78,98.19a.66.66,0,1,0-.66-.65A.66.66,0,0,0,101.78,98.19Z"/><circle cx="106.02" cy="97.54" r="0.56"/><circle cx="110.26" cy="97.54" r="0.47"/><circle cx="114.5" cy="97.54" r="0.36"/><path d="M118.74,97.8a.26.26,0,0,0,.26-.26.26.26,0,0,0-.26-.26.25.25,0,0,0-.26.26A.26.26,0,0,0,118.74,97.8Z"/><path d="M123,97.69a.15.15,0,0,0,.15-.15.16.16,0,0,0-.15-.16.16.16,0,0,0-.16.16A.16.16,0,0,0,123,97.69Z"/><path d="M127.22,97.58a0,0,0,0,0,0,0,0,0,0,0,0,0-.05,0,0,0,0,0,0,.05A0,0,0,0,0,127.22,97.58Z"/><circle cx="12.73" cy="101.78" r="0.08"/><path d="M17,102a.18.18,0,0,0,.19-.18.18.18,0,0,0-.19-.19.19.19,0,1,0,0,.37Z"/><path d="M21.21,102.06a.29.29,0,0,0,0-.57.29.29,0,0,0,0,.57Z"/><path d="M25.45,102.16a.39.39,0,1,0,0-.77.39.39,0,1,0,0,.77Z"/><path d="M29.69,102.26a.49.49,0,1,0-.48-.48A.49.49,0,0,0,29.69,102.26Z"/><path d="M33.93,102.35a.58.58,0,1,0-.57-.57A.58.58,0,0,0,33.93,102.35Z"/><path d="M38.17,102.44a.66.66,0,0,0,0-1.32.66.66,0,0,0,0,1.32Z"/><path d="M42.41,102.52a.74.74,0,1,0-.74-.74A.74.74,0,0,0,42.41,102.52Z"/><path d="M46.65,102.58a.8.8,0,1,0-.8-.8A.8.8,0,0,0,46.65,102.58Z"/><circle cx="50.89" cy="101.78" r="0.87"/><circle cx="55.13" cy="101.78" r="0.92"/><circle cx="59.37" cy="101.78" r="0.95"/><circle cx="63.61" cy="101.78" r="0.98"/><circle cx="67.86" cy="101.78" r="0.99"/><circle cx="72.1" cy="101.78" r="0.98"/><circle cx="76.34" cy="101.78" r="0.95"/><circle cx="80.58" cy="101.78" r="0.92"/><circle cx="84.82" cy="101.78" r="0.87"/><circle cx="89.06" cy="101.78" r="0.81"/><path d="M93.3,102.52a.74.74,0,1,0-.74-.74A.74.74,0,0,0,93.3,102.52Z"/><path d="M97.54,102.44a.66.66,0,1,0-.66-.66A.66.66,0,0,0,97.54,102.44Z"/><path d="M101.78,102.35a.58.58,0,1,0-.58-.57A.58.58,0,0,0,101.78,102.35Z"/><path d="M106,102.27a.5.5,0,1,0-.5-.49A.49.49,0,0,0,106,102.27Z"/><path d="M110.26,102.18a.4.4,0,1,0-.4-.4A.4.4,0,0,0,110.26,102.18Z"/><path d="M114.5,102.07a.3.3,0,0,0,0-.59.3.3,0,1,0,0,.59Z"/><path d="M118.74,102a.19.19,0,1,0,0-.37.18.18,0,0,0-.19.19A.18.18,0,0,0,118.74,102Z"/><path d="M123,101.87a.09.09,0,0,0,.09-.09.09.09,0,0,0-.09-.1.1.1,0,0,0-.1.1A.1.1,0,0,0,123,101.87Z"/><path d="M127.22,101.79h0a0,0,0,0,0,0,0s0,0,0,0A0,0,0,0,0,127.22,101.79Z"/><path d="M12.73,106s0,0,0,0a0,0,0,0,0,0,0s0,0,0,0A0,0,0,0,0,12.73,106Z"/><path d="M17,106.13a.11.11,0,0,0,.12-.11.12.12,0,0,0-.12-.12.11.11,0,0,0-.11.12A.11.11,0,0,0,17,106.13Z"/><path d="M21.21,106.23a.21.21,0,0,0,.21-.21.21.21,0,0,0-.21-.21A.21.21,0,0,0,21,106,.22.22,0,0,0,21.21,106.23Z"/><path d="M25.45,106.32a.3.3,0,0,0,.31-.3.31.31,0,0,0-.31-.31.3.3,0,0,0-.3.31A.29.29,0,0,0,25.45,106.32Z"/><path d="M29.69,106.42a.4.4,0,1,0-.4-.4A.4.4,0,0,0,29.69,106.42Z"/><path d="M33.93,106.5a.49.49,0,1,0-.48-.48A.49.49,0,0,0,33.93,106.5Z"/><path d="M38.17,106.58a.56.56,0,0,0,.57-.56.57.57,0,1,0-1.13,0A.56.56,0,0,0,38.17,106.58Z"/><path d="M42.41,106.65a.64.64,0,0,0,.64-.63.64.64,0,0,0-.64-.64.64.64,0,0,0-.63.64A.63.63,0,0,0,42.41,106.65Z"/><path d="M46.65,106.72a.7.7,0,0,0,.71-.7.71.71,0,0,0-.71-.71.7.7,0,0,0-.7.71A.7.7,0,0,0,46.65,106.72Z"/><circle cx="50.89" cy="106.02" r="0.75"/><path d="M55.13,106.82a.8.8,0,1,0-.8-.8A.8.8,0,0,0,55.13,106.82Z"/><circle cx="59.37" cy="106.02" r="0.83"/><circle cx="63.61" cy="106.02" r="0.86"/><circle cx="67.86" cy="106.02" r="0.86"/><circle cx="72.1" cy="106.02" r="0.86"/><circle cx="76.34" cy="106.02" r="0.83"/><circle cx="80.58" cy="106.02" r="0.8"/><circle cx="84.82" cy="106.02" r="0.76"/><circle cx="89.06" cy="106.02" r="0.71"/><circle cx="93.3" cy="106.02" r="0.63"/><circle cx="97.54" cy="106.02" r="0.56"/><path d="M101.78,106.51a.5.5,0,1,0-.5-.49A.49.49,0,0,0,101.78,106.51Z"/><path d="M106,106.42a.4.4,0,1,0-.4-.4A.4.4,0,0,0,106,106.42Z"/><path d="M110.26,106.33a.32.32,0,0,0,0-.63.32.32,0,1,0,0,.63Z"/><circle cx="114.5" cy="106.02" r="0.22"/><path d="M118.74,106.13a.12.12,0,0,0,.12-.11.12.12,0,0,0-.12-.12.12.12,0,0,0-.12.12A.11.11,0,0,0,118.74,106.13Z"/><path d="M123,106a0,0,0,0,0,0,0s0,0,0,0a0,0,0,0,0,0,0S123,106,123,106Z"/><path d="M17,110.29s0,0,0,0a0,0,0,0,0,0,0s0,0,0,0A0,0,0,0,0,17,110.29Z"/><path d="M21.21,110.39a.13.13,0,1,0-.13-.13A.13.13,0,0,0,21.21,110.39Z"/><circle cx="25.45" cy="110.26" r="0.22"/><path d="M29.69,110.56a.3.3,0,0,0,.31-.3.31.31,0,0,0-.31-.31.3.3,0,0,0-.3.31A.29.29,0,0,0,29.69,110.56Z"/><path d="M33.93,110.65a.39.39,0,0,0,.39-.39.39.39,0,1,0-.77,0A.39.39,0,0,0,33.93,110.65Z"/><path d="M38.17,110.72a.46.46,0,0,0,.46-.46.46.46,0,1,0-.46.46Z"/><circle cx="42.41" cy="110.26" r="0.53"/><circle cx="46.65" cy="110.26" r="0.59"/><path d="M50.89,110.89a.64.64,0,0,0,.64-.63.64.64,0,0,0-.64-.64.64.64,0,0,0-.63.64A.63.63,0,0,0,50.89,110.89Z"/><path d="M55.13,110.94a.68.68,0,1,0,0-1.36.68.68,0,0,0,0,1.36Z"/><path d="M59.37,111a.72.72,0,1,0-.71-.71A.71.71,0,0,0,59.37,111Z"/><circle cx="63.61" cy="110.26" r="0.73"/><path d="M67.86,111a.74.74,0,1,0-.75-.74A.74.74,0,0,0,67.86,111Z"/><path d="M72.1,111a.74.74,0,1,0-.75-.74A.74.74,0,0,0,72.1,111Z"/><circle cx="76.34" cy="110.26" r="0.72"/><circle cx="80.58" cy="110.26" r="0.68"/><circle cx="84.82" cy="110.26" r="0.65"/><path d="M89.06,110.86a.6.6,0,1,0,0-1.2.6.6,0,1,0,0,1.2Z"/><circle cx="93.3" cy="110.26" r="0.54"/><circle cx="97.54" cy="110.26" r="0.47"/><circle cx="101.78" cy="110.26" r="0.4"/><path d="M106,110.57a.32.32,0,0,0,0-.63.32.32,0,1,0,0,.63Z"/><circle cx="110.26" cy="110.26" r="0.22"/><circle cx="114.5" cy="110.26" r="0.14"/><path d="M118.74,110.3a0,0,0,0,0,0,0,0,0,0,0,0,0-.05,0,0,0,0,0,0,.05A0,0,0,0,0,118.74,110.3Z"/><path d="M21.21,114.54a0,0,0,0,0,.05,0,0,0,0,0,0-.05,0,0,0,0,0,0,0,0A0,0,0,0,0,21.21,114.54Z"/><path d="M25.45,114.63a.13.13,0,1,0-.13-.13A.13.13,0,0,0,25.45,114.63Z"/><path d="M29.69,114.71a.21.21,0,0,0,.21-.21.21.21,0,0,0-.21-.21.21.21,0,0,0-.21.21A.22.22,0,0,0,29.69,114.71Z"/><path d="M33.93,114.78a.29.29,0,0,0,.29-.28.29.29,0,0,0-.57,0A.29.29,0,0,0,33.93,114.78Z"/><circle cx="38.17" cy="114.5" r="0.36"/><path d="M42.41,114.92a.43.43,0,1,0-.42-.42A.42.42,0,0,0,42.41,114.92Z"/><path d="M46.65,115a.49.49,0,0,0,.49-.48.49.49,0,1,0-.49.48Z"/><circle cx="50.89" cy="114.5" r="0.53"/><circle cx="55.13" cy="114.5" r="0.56"/><circle cx="59.37" cy="114.5" r="0.59"/><circle cx="63.61" cy="114.5" r="0.61"/><circle cx="67.86" cy="114.5" r="0.61"/><circle cx="72.1" cy="114.5" r="0.61"/><circle cx="76.34" cy="114.5" r="0.59"/><circle cx="80.58" cy="114.5" r="0.56"/><circle cx="84.82" cy="114.5" r="0.53"/><circle cx="89.06" cy="114.5" r="0.48"/><path d="M93.3,114.93a.43.43,0,0,0,.43-.43.44.44,0,0,0-.43-.44.44.44,0,0,0-.44.44A.44.44,0,0,0,93.3,114.93Z"/><circle cx="97.54" cy="114.5" r="0.36"/><path d="M101.78,114.79a.29.29,0,0,0,.29-.29.3.3,0,1,0-.59,0A.29.29,0,0,0,101.78,114.79Z"/><circle cx="106.02" cy="114.5" r="0.22"/><circle cx="110.26" cy="114.5" r="0.14"/><path d="M114.5,114.54a0,0,0,0,0,0,0,0,0,0,0,0,0,0,0,0,0,0,0,0,0A0,0,0,0,0,114.5,114.54Z"/><path d="M25.45,118.78a0,0,0,0,0,.05,0,0,0,0,0,0-.05,0,0,0,0,0,0,0,0A0,0,0,0,0,25.45,118.78Z"/><path d="M29.69,118.86a.12.12,0,0,0,.12-.12.12.12,0,0,0-.12-.12.11.11,0,0,0-.11.12A.12.12,0,0,0,29.69,118.86Z"/><path d="M33.93,118.93a.19.19,0,0,0,.19-.19.18.18,0,0,0-.19-.19.18.18,0,0,0-.18.19A.19.19,0,0,0,33.93,118.93Z"/><path d="M38.17,119a.25.25,0,1,0-.24-.24A.25.25,0,0,0,38.17,119Z"/><path d="M42.41,119.06a.32.32,0,0,0,.32-.32.32.32,0,1,0-.63,0A.32.32,0,0,0,42.41,119.06Z"/><circle cx="46.65" cy="118.74" r="0.36"/><path d="M50.89,119.15a.42.42,0,0,0,.42-.41.42.42,0,0,0-.83,0A.42.42,0,0,0,50.89,119.15Z"/><circle cx="55.13" cy="118.74" r="0.45"/><circle cx="59.37" cy="118.74" r="0.47"/><circle cx="63.61" cy="118.74" r="0.48"/><circle cx="67.86" cy="118.74" r="0.49"/><circle cx="72.1" cy="118.74" r="0.48"/><circle cx="76.34" cy="118.74" r="0.47"/><circle cx="80.58" cy="118.74" r="0.45"/><circle cx="84.82" cy="118.74" r="0.41"/><path d="M89.06,119.11a.37.37,0,0,0,.37-.37.38.38,0,1,0-.75,0A.37.37,0,0,0,89.06,119.11Z"/><circle cx="93.3" cy="118.74" r="0.32"/><circle cx="97.54" cy="118.74" r="0.26"/><circle cx="101.78" cy="118.74" r="0.19"/><circle cx="106.02" cy="118.74" r="0.12"/><path d="M110.26,118.78a0,0,0,0,0,0,0,0,0,0,0,0,0,0,0,0,0,0,0-.05,0A0,0,0,0,0,110.26,118.78Z"/><path d="M29.69,123s0,0,0,0a0,0,0,0,0,0,0s0,0,0,0A0,0,0,0,0,29.69,123Z"/><circle cx="33.93" cy="122.98" r="0.08"/><circle cx="38.17" cy="122.98" r="0.14"/><path d="M42.41,123.18a.2.2,0,1,0-.2-.2A.2.2,0,0,0,42.41,123.18Z"/><circle cx="46.65" cy="122.98" r="0.25"/><path d="M50.89,123.27a.29.29,0,0,0,.3-.29.3.3,0,1,0-.59,0A.29.29,0,0,0,50.89,123.27Z"/><circle cx="55.13" cy="122.98" r="0.33"/><path d="M59.37,123.33a.36.36,0,0,0,.36-.35.36.36,0,0,0-.71,0A.35.35,0,0,0,59.37,123.33Z"/><circle cx="63.61" cy="122.98" r="0.36"/><circle cx="67.86" cy="122.98" r="0.36"/><circle cx="72.1" cy="122.98" r="0.36"/><path d="M76.34,123.33a.35.35,0,0,0,.35-.35.36.36,0,0,0-.71,0A.36.36,0,0,0,76.34,123.33Z"/><circle cx="80.58" cy="122.98" r="0.33"/><path d="M84.82,123.27a.29.29,0,0,0,.29-.29.3.3,0,1,0-.59,0A.29.29,0,0,0,84.82,123.27Z"/><circle cx="89.06" cy="122.98" r="0.26"/><circle cx="93.3" cy="122.98" r="0.2"/><path d="M97.54,123.13a.15.15,0,0,0,.15-.15.16.16,0,0,0-.15-.16.16.16,0,0,0-.16.16A.16.16,0,0,0,97.54,123.13Z"/><path d="M101.78,123.07a.09.09,0,0,0,.09-.09.1.1,0,0,0-.09-.1.1.1,0,0,0-.1.1A.09.09,0,0,0,101.78,123.07Z"/><circle cx="106.02" cy="122.98" r="0.02"/><path d="M33.93,127.23h0s0,0,0,0a0,0,0,0,0,0,0Z"/><path d="M38.17,127.25s0,0,0,0a0,0,0,0,0,0,0s0,0,0,0A0,0,0,0,0,38.17,127.25Z"/><path d="M42.41,127.31a.09.09,0,0,0,.1-.09.1.1,0,0,0-.1-.1.1.1,0,0,0-.09.1A.09.09,0,0,0,42.41,127.31Z"/><path d="M46.65,127.35a.13.13,0,0,0,0-.26.13.13,0,0,0,0,.26Z"/><path d="M50.89,127.39a.17.17,0,0,0,.18-.17.18.18,0,0,0-.18-.18.18.18,0,0,0-.17.18A.17.17,0,0,0,50.89,127.39Z"/><circle cx="55.13" cy="127.22" r="0.2"/><circle cx="59.37" cy="127.22" r="0.22"/><path d="M63.61,127.45a.23.23,0,0,0,.24-.23.24.24,0,0,0-.24-.24.23.23,0,0,0-.23.24A.23.23,0,0,0,63.61,127.45Z"/><circle cx="67.86" cy="127.22" r="0.25"/><path d="M72.1,127.45a.23.23,0,0,0,.23-.23.23.23,0,0,0-.23-.24.24.24,0,0,0-.24.24A.23.23,0,0,0,72.1,127.45Z"/><circle cx="76.34" cy="127.22" r="0.22"/><circle cx="80.58" cy="127.22" r="0.2"/><path d="M84.82,127.39a.17.17,0,0,0,.17-.17.18.18,0,0,0-.17-.18.18.18,0,0,0-.18.18A.17.17,0,0,0,84.82,127.39Z"/><circle cx="89.06" cy="127.22" r="0.14"/><path d="M93.3,127.31a.09.09,0,0,0,.09-.09.1.1,0,0,0-.09-.1.1.1,0,0,0-.1.1A.09.09,0,0,0,93.3,127.31Z"/><path d="M97.54,127.27s0,0,0,0a0,0,0,0,0,0,0,0,0,0,0,0-.05,0A.05.05,0,0,0,97.54,127.27Z"/><path d="M101.78,127.23h0a0,0,0,0,0,0,0s0,0,0,0Z"/><path d="M42.41,131.47h0s0,0,0,0a0,0,0,0,0,0,0Z"/><circle cx="46.65" cy="131.46" r="0.02"/><circle cx="50.89" cy="131.46" r="0.06"/><circle cx="55.13" cy="131.46" r="0.08"/><circle cx="59.37" cy="131.46" r="0.11"/><circle cx="63.61" cy="131.46" r="0.12"/><circle cx="67.86" cy="131.46" r="0.12"/><circle cx="72.1" cy="131.46" r="0.12"/><circle cx="76.34" cy="131.46" r="0.11"/><circle cx="80.58" cy="131.46" r="0.08"/><circle cx="84.82" cy="131.46" r="0.06"/><circle cx="89.06" cy="131.46" r="0.02"/><path d="M93.3,131.47h0a0,0,0,0,0,0,0s0,0,0,0Z"/><path d="M59.37,135.71h0Z"/><path d="M63.61,135.71h0Z"/><path d="M67.86,135.71h0Z"/><path d="M72.1,135.71h0Z"/><path d="M76.34,135.71h0Z"/></g></g></svg>