<svg xmlns="http://www.w3.org/2000/svg" viewBox="0 0 127.6 127.6"><title>4halftone</title><g id="Camada_2" data-name="Camada 2"><g id="Layer_1" data-name="Layer 1"><circle cx="42.58" cy="0.18" r="0.04"/><circle cx="49.65" cy="0.18" r="0.1"/><path d="M56.71.33a.16.16,0,0,0,.16-.15A.16.16,0,0,0,56.71,0a.16.16,0,0,0-.15.16A.15.15,0,0,0,56.71.33Z"/><path d="M63.78.35A.18.18,0,0,0,64,.18a.18.18,0,0,0-.36,0A.18.18,0,0,0,63.78.35Z"/><path d="M70.85.33A.15.15,0,0,0,71,.18.16.16,0,0,0,70.85,0a.16.16,0,0,0-.16.16A.16.16,0,0,0,70.85.33Z"/><path d="M77.91.29A.11.11,0,0,0,78,.18a.12.12,0,0,0-.12-.12.11.11,0,0,0-.11.12A.11.11,0,0,0,77.91.29Z"/><circle cx="84.98" cy="0.18" r="0.06"/><circle cx="28.44" cy="7.24" r="0.06"/><circle cx="35.51" cy="7.24" r="0.18"/><path d="M42.58,7.58a.34.34,0,0,0,0-.67.34.34,0,0,0,0,.67Z"/><path d="M49.65,7.67a.43.43,0,0,0,.43-.43.44.44,0,0,0-.87,0A.44.44,0,0,0,49.65,7.67Z"/><path d="M56.71,7.73a.49.49,0,1,0-.49-.49A.49.49,0,0,0,56.71,7.73Z"/><path d="M63.78,7.75a.51.51,0,1,0-.51-.51A.51.51,0,0,0,63.78,7.75Z"/><path d="M70.85,7.73a.49.49,0,1,0-.49-.49A.49.49,0,0,0,70.85,7.73Z"/><path d="M77.91,7.67a.43.43,0,0,0,.43-.43.43.43,0,0,0-.43-.43.44.44,0,0,0-.43.43A.43.43,0,0,0,77.91,7.67Z"/><path d="M85,7.58a.34.34,0,1,0-.33-.34A.34.34,0,0,0,85,7.58Z"/><path d="M92.05,7.44a.19.19,0,0,0,.19-.2.19.19,0,0,0-.19-.19.2.2,0,1,0,0,.39Z"/><circle cx="99.11" cy="7.24" r="0.06"/><circle cx="21.38" cy="14.31" r="0.1"/><path d="M28.44,14.6a.29.29,0,1,0-.29-.29A.29.29,0,0,0,28.44,14.6Z"/><circle cx="35.51" cy="14.31" r="0.49"/><circle cx="42.58" cy="14.31" r="0.65"/><path d="M49.65,15.07a.76.76,0,1,0-.77-.76A.76.76,0,0,0,49.65,15.07Z"/><path d="M56.71,15.15a.84.84,0,1,0-.84-.84A.84.84,0,0,0,56.71,15.15Z"/><path d="M63.78,15.17a.86.86,0,1,0-.86-.86A.85.85,0,0,0,63.78,15.17Z"/><path d="M70.85,15.15a.84.84,0,1,0,0-1.68.84.84,0,1,0,0,1.68Z"/><path d="M77.91,15.07a.76.76,0,1,0-.76-.76A.76.76,0,0,0,77.91,15.07Z"/><circle cx="84.98" cy="14.31" r="0.65"/><circle cx="92.05" cy="14.31" r="0.51"/><path d="M99.11,14.62a.31.31,0,1,0-.31-.31A.31.31,0,0,0,99.11,14.62Z"/><circle cx="106.18" cy="14.31" r="0.12"/><circle cx="14.31" cy="21.38" r="0.1"/><path d="M21.38,21.71a.34.34,0,0,0,0-.67.34.34,0,1,0,0,.67Z"/><circle cx="28.44" cy="21.38" r="0.57"/><path d="M35.51,22.16a.79.79,0,1,0-.78-.78A.78.78,0,0,0,35.51,22.16Z"/><path d="M42.58,22.34a1,1,0,1,0-1-1A1,1,0,0,0,42.58,22.34Z"/><circle cx="49.65" cy="21.38" r="1.1"/><circle cx="56.71" cy="21.38" r="1.18"/><path d="M63.78,22.59a1.22,1.22,0,0,0,0-2.43,1.22,1.22,0,1,0,0,2.43Z"/><path d="M70.85,22.55a1.18,1.18,0,0,0,0-2.35,1.18,1.18,0,1,0,0,2.35Z"/><path d="M77.91,22.47a1.1,1.1,0,1,0-1.09-1.09A1.09,1.09,0,0,0,77.91,22.47Z"/><path d="M85,22.34a1,1,0,1,0-1-1A1,1,0,0,0,85,22.34Z"/><path d="M92.05,22.18a.81.81,0,1,0-.81-.8A.8.8,0,0,0,92.05,22.18Z"/><circle cx="99.11" cy="21.38" r="0.61"/><path d="M106.18,21.75a.37.37,0,0,0,.37-.37.36.36,0,0,0-.37-.37.37.37,0,0,0-.37.37A.38.38,0,0,0,106.18,21.75Z"/><circle cx="113.25" cy="21.38" r="0.12"/><circle cx="7.24" cy="28.44" r="0.06"/><path d="M14.31,28.74a.3.3,0,1,0-.29-.3A.29.29,0,0,0,14.31,28.74Z"/><circle cx="21.38" cy="28.44" r="0.57"/><path d="M28.44,29.27a.83.83,0,1,0-.82-.83A.83.83,0,0,0,28.44,29.27Z"/><circle cx="35.51" cy="28.44" r="1.06"/><path d="M42.58,29.7a1.26,1.26,0,1,0-1.26-1.26A1.25,1.25,0,0,0,42.58,29.7Z"/><path d="M49.65,29.86a1.42,1.42,0,1,0-1.42-1.42A1.42,1.42,0,0,0,49.65,29.86Z"/><path d="M56.71,30a1.51,1.51,0,1,0-1.51-1.51A1.5,1.5,0,0,0,56.71,30Z"/><path d="M63.78,30a1.55,1.55,0,1,0-1.55-1.55A1.55,1.55,0,0,0,63.78,30Z"/><path d="M70.85,30a1.51,1.51,0,1,0-1.51-1.51A1.51,1.51,0,0,0,70.85,30Z"/><path d="M77.91,29.88a1.44,1.44,0,1,0-1.43-1.44A1.44,1.44,0,0,0,77.91,29.88Z"/><path d="M85,29.72a1.28,1.28,0,1,0-1.27-1.28A1.27,1.27,0,0,0,85,29.72Z"/><circle cx="92.05" cy="28.44" r="1.08"/><path d="M99.11,29.31a.87.87,0,1,0-.86-.87A.87.87,0,0,0,99.11,29.31Z"/><circle cx="106.18" cy="28.44" r="0.61"/><path d="M113.25,28.78a.34.34,0,0,0,0-.67.34.34,0,0,0,0,.67Z"/><circle cx="120.32" cy="28.44" r="0.08"/><path d="M7.24,35.69a.18.18,0,0,0,.18-.18.17.17,0,0,0-.18-.17.17.17,0,0,0-.17.17A.18.18,0,0,0,7.24,35.69Z"/><path d="M14.31,36a.49.49,0,1,0-.49-.49A.49.49,0,0,0,14.31,36Z"/><path d="M21.38,36.3a.79.79,0,0,0,.78-.79.79.79,0,0,0-1.57,0A.79.79,0,0,0,21.38,36.3Z"/><path d="M28.44,36.57a1.06,1.06,0,1,0-1.05-1.06A1.05,1.05,0,0,0,28.44,36.57Z"/><path d="M35.51,36.82a1.31,1.31,0,1,0-1.31-1.31A1.3,1.3,0,0,0,35.51,36.82Z"/><path d="M42.58,37.06A1.55,1.55,0,1,0,41,35.51,1.55,1.55,0,0,0,42.58,37.06Z"/><circle cx="49.65" cy="35.51" r="1.72"/><path d="M56.71,37.35a1.84,1.84,0,1,0-1.84-1.84A1.84,1.84,0,0,0,56.71,37.35Z"/><path d="M63.78,37.41a1.9,1.9,0,1,0-1.9-1.9A1.9,1.9,0,0,0,63.78,37.41Z"/><path d="M70.85,37.37A1.86,1.86,0,1,0,69,35.51,1.86,1.86,0,0,0,70.85,37.37Z"/><circle cx="77.91" cy="35.51" r="1.74"/><path d="M85,37.08a1.57,1.57,0,1,0-1.57-1.57A1.57,1.57,0,0,0,85,37.08Z"/><path d="M92.05,36.84a1.33,1.33,0,1,0-1.34-1.33A1.33,1.33,0,0,0,92.05,36.84Z"/><path d="M99.11,36.59A1.08,1.08,0,1,0,98,35.51,1.08,1.08,0,0,0,99.11,36.59Z"/><path d="M106.18,36.31a.8.8,0,1,0,0-1.6.8.8,0,0,0,0,1.6Z"/><circle cx="113.25" cy="35.51" r="0.51"/><path d="M120.32,35.73a.22.22,0,0,0,.21-.22.21.21,0,0,0-.21-.21.21.21,0,0,0-.22.21A.22.22,0,0,0,120.32,35.73Z"/><circle cx="127.38" cy="35.51" r="0.02"/><path d="M.18,42.62a0,0,0,1,0,0-.08,0,0,0,1,0,0,.08Z"/><path d="M7.24,42.91a.34.34,0,0,0,.34-.33.34.34,0,0,0-.67,0A.33.33,0,0,0,7.24,42.91Z"/><path d="M14.31,43.23a.65.65,0,1,0-.65-.65A.65.65,0,0,0,14.31,43.23Z"/><path d="M21.38,43.54a1,1,0,1,0-1-1A1,1,0,0,0,21.38,43.54Z"/><path d="M28.44,43.83a1.26,1.26,0,1,0-1.25-1.25A1.25,1.25,0,0,0,28.44,43.83Z"/><path d="M35.51,44.13A1.55,1.55,0,1,0,34,42.58,1.55,1.55,0,0,0,35.51,44.13Z"/><path d="M42.58,44.38a1.8,1.8,0,1,0-1.8-1.8A1.81,1.81,0,0,0,42.58,44.38Z"/><path d="M49.65,44.6a2,2,0,1,0-2-2A2,2,0,0,0,49.65,44.6Z"/><path d="M56.71,44.75a2.18,2.18,0,1,0-2.17-2.17A2.18,2.18,0,0,0,56.71,44.75Z"/><path d="M63.78,44.81a2.24,2.24,0,1,0-2.23-2.23A2.23,2.23,0,0,0,63.78,44.81Z"/><path d="M70.85,44.77a2.2,2.2,0,1,0-2.2-2.19A2.19,2.19,0,0,0,70.85,44.77Z"/><path d="M77.91,44.62a2,2,0,1,0-2-2A2,2,0,0,0,77.91,44.62Z"/><path d="M85,44.4a1.82,1.82,0,1,0-1.82-1.82A1.81,1.81,0,0,0,85,44.4Z"/><path d="M92.05,44.15a1.57,1.57,0,1,0-1.57-1.57A1.58,1.58,0,0,0,92.05,44.15Z"/><path d="M99.11,43.87a1.29,1.29,0,1,0-1.29-1.29A1.3,1.3,0,0,0,99.11,43.87Z"/><path d="M106.18,43.56a1,1,0,1,0-1-1A1,1,0,0,0,106.18,43.56Z"/><path d="M113.25,43.24a.65.65,0,0,0,.66-.66.66.66,0,0,0-.66-.67.67.67,0,0,0-.67.67A.66.66,0,0,0,113.25,43.24Z"/><path d="M120.32,42.93a.35.35,0,0,0,.35-.35.36.36,0,0,0-.71,0A.36.36,0,0,0,120.32,42.93Z"/><path d="M127.38,42.64a.06.06,0,1,0-.06-.06A.06.06,0,0,0,127.38,42.64Z"/><path d="M.18,49.74a.09.09,0,0,0,.09-.09.09.09,0,0,0-.09-.1.09.09,0,0,0-.1.1A.09.09,0,0,0,.18,49.74Z"/><path d="M7.24,50.08a.44.44,0,0,0,0-.87.44.44,0,0,0,0,.87Z"/><path d="M14.31,50.41a.77.77,0,1,0-.76-.76A.76.76,0,0,0,14.31,50.41Z"/><path d="M21.38,50.74a1.1,1.1,0,1,0-1.1-1.09A1.09,1.09,0,0,0,21.38,50.74Z"/><path d="M28.44,51.06A1.42,1.42,0,1,0,27,49.65,1.42,1.42,0,0,0,28.44,51.06Z"/><circle cx="35.51" cy="49.65" r="1.72"/><path d="M42.58,51.66a2,2,0,1,0-2-2A2,2,0,0,0,42.58,51.66Z"/><circle cx="49.65" cy="49.65" r="2.29"/><path d="M56.71,52.13a2.49,2.49,0,1,0-2.49-2.48A2.48,2.48,0,0,0,56.71,52.13Z"/><path d="M63.78,52.23a2.59,2.59,0,1,0-2.59-2.58A2.59,2.59,0,0,0,63.78,52.23Z"/><path d="M70.85,52.15a2.51,2.51,0,1,0-2.51-2.5A2.5,2.5,0,0,0,70.85,52.15Z"/><path d="M77.91,52a2.32,2.32,0,1,0-2.31-2.31A2.32,2.32,0,0,0,77.91,52Z"/><path d="M85,51.7a2.06,2.06,0,1,0-2.06-2.05A2.05,2.05,0,0,0,85,51.7Z"/><path d="M92.05,51.41a1.77,1.77,0,1,0-1.77-1.76A1.76,1.76,0,0,0,92.05,51.41Z"/><path d="M99.11,51.08a1.44,1.44,0,1,0-1.43-1.43A1.44,1.44,0,0,0,99.11,51.08Z"/><path d="M106.18,50.76a1.12,1.12,0,1,0-1.12-1.11A1.12,1.12,0,0,0,106.18,50.76Z"/><path d="M113.25,50.45a.81.81,0,1,0-.81-.8A.8.8,0,0,0,113.25,50.45Z"/><path d="M120.32,50.1a.46.46,0,1,0-.46-.45A.46.46,0,0,0,120.32,50.1Z"/><path d="M127.38,49.78a.13.13,0,0,0,.14-.13.14.14,0,0,0-.14-.14.13.13,0,0,0-.13.14A.13.13,0,0,0,127.38,49.78Z"/><path d="M.18,56.87a.16.16,0,0,0,.15-.16.15.15,0,0,0-.15-.15.16.16,0,0,0-.16.15A.16.16,0,0,0,.18,56.87Z"/><path d="M7.24,57.2a.49.49,0,1,0-.49-.49A.49.49,0,0,0,7.24,57.2Z"/><path d="M14.31,57.56a.85.85,0,1,0-.84-.85A.84.84,0,0,0,14.31,57.56Z"/><circle cx="21.38" cy="56.71" r="1.18"/><path d="M28.44,58.22a1.51,1.51,0,1,0-1.5-1.51A1.5,1.5,0,0,0,28.44,58.22Z"/><path d="M35.51,58.55a1.84,1.84,0,1,0-1.84-1.84A1.84,1.84,0,0,0,35.51,58.55Z"/><path d="M42.58,58.89a2.18,2.18,0,1,0-2.18-2.18A2.18,2.18,0,0,0,42.58,58.89Z"/><path d="M49.65,59.2a2.49,2.49,0,1,0-2.49-2.49A2.48,2.48,0,0,0,49.65,59.2Z"/><path d="M56.71,59.5a2.79,2.79,0,1,0-2.78-2.79A2.79,2.79,0,0,0,56.71,59.5Z"/><path d="M63.78,59.63a2.92,2.92,0,1,0-2.92-2.92A2.92,2.92,0,0,0,63.78,59.63Z"/><path d="M70.85,59.5a2.79,2.79,0,1,0-2.79-2.79A2.79,2.79,0,0,0,70.85,59.5Z"/><path d="M77.91,59.24a2.53,2.53,0,1,0-2.52-2.53A2.53,2.53,0,0,0,77.91,59.24Z"/><path d="M85,58.93a2.22,2.22,0,1,0-2.21-2.22A2.21,2.21,0,0,0,85,58.93Z"/><path d="M92.05,58.59a1.88,1.88,0,1,0-1.88-1.88A1.88,1.88,0,0,0,92.05,58.59Z"/><path d="M99.11,58.26a1.55,1.55,0,1,0-1.54-1.55A1.54,1.54,0,0,0,99.11,58.26Z"/><path d="M106.18,57.93a1.22,1.22,0,1,0,0-2.43,1.22,1.22,0,0,0,0,2.43Z"/><path d="M113.25,57.57a.86.86,0,1,0-.86-.86A.86.86,0,0,0,113.25,57.57Z"/><circle cx="120.32" cy="56.71" r="0.53"/><path d="M127.38,56.91a.2.2,0,0,0,.2-.2.19.19,0,0,0-.2-.19.18.18,0,0,0-.19.19A.19.19,0,0,0,127.38,56.91Z"/><path d="M.18,64a.18.18,0,0,0,0-.36.18.18,0,0,0,0,.36Z"/><circle cx="7.24" cy="63.78" r="0.51"/><path d="M14.31,64.64a.86.86,0,1,0-.86-.86A.85.85,0,0,0,14.31,64.64Z"/><circle cx="21.38" cy="63.78" r="1.22"/><path d="M28.44,65.33a1.55,1.55,0,1,0-1.54-1.55A1.55,1.55,0,0,0,28.44,65.33Z"/><path d="M35.51,65.68a1.9,1.9,0,1,0-1.9-1.9A1.9,1.9,0,0,0,35.51,65.68Z"/><circle cx="42.58" cy="63.78" r="2.23"/><path d="M49.65,66.37a2.59,2.59,0,1,0-2.59-2.59A2.59,2.59,0,0,0,49.65,66.37Z"/><circle cx="56.71" cy="63.78" r="2.92"/><path d="M63.78,66.93a3.16,3.16,0,1,0-3.16-3.15A3.15,3.15,0,0,0,63.78,66.93Z"/><path d="M70.85,66.72a2.94,2.94,0,1,0-2.94-2.94A2.94,2.94,0,0,0,70.85,66.72Z"/><path d="M77.91,66.39a2.61,2.61,0,1,0-2.6-2.61A2.61,2.61,0,0,0,77.91,66.39Z"/><circle cx="84.98" cy="63.78" r="2.27"/><path d="M92.05,65.7a1.92,1.92,0,1,0-1.92-1.92A1.92,1.92,0,0,0,92.05,65.7Z"/><path d="M99.11,65.37a1.59,1.59,0,1,0-1.58-1.59A1.59,1.59,0,0,0,99.11,65.37Z"/><path d="M106.18,65A1.24,1.24,0,1,0,105,63.78,1.24,1.24,0,0,0,106.18,65Z"/><path d="M113.25,64.68a.9.9,0,1,0-.9-.9A.9.9,0,0,0,113.25,64.68Z"/><circle cx="120.32" cy="63.78" r="0.55"/><path d="M127.38,64a.21.21,0,0,0,.22-.21.22.22,0,0,0-.22-.22.21.21,0,0,0-.21.22A.21.21,0,0,0,127.38,64Z"/><path d="M.18,71a.15.15,0,0,0,.15-.15.16.16,0,0,0-.15-.16.16.16,0,0,0-.16.16A.16.16,0,0,0,.18,71Z"/><circle cx="7.24" cy="70.85" r="0.49"/><path d="M14.31,71.69a.85.85,0,1,0-.84-.84A.84.84,0,0,0,14.31,71.69Z"/><circle cx="21.38" cy="70.85" r="1.18"/><path d="M28.44,72.36a1.51,1.51,0,1,0-1.5-1.51A1.51,1.51,0,0,0,28.44,72.36Z"/><path d="M35.51,72.71a1.87,1.87,0,1,0-1.86-1.86A1.86,1.86,0,0,0,35.51,72.71Z"/><circle cx="42.58" cy="70.85" r="2.19"/><path d="M49.65,73.35a2.51,2.51,0,1,0-2.51-2.5A2.5,2.5,0,0,0,49.65,73.35Z"/><path d="M56.71,73.63a2.79,2.79,0,1,0-2.78-2.78A2.79,2.79,0,0,0,56.71,73.63Z"/><path d="M63.78,73.79a2.94,2.94,0,1,0-2.94-2.94A2.94,2.94,0,0,0,63.78,73.79Z"/><path d="M70.85,73.67A2.83,2.83,0,1,0,68,70.85,2.82,2.82,0,0,0,70.85,73.67Z"/><path d="M77.91,73.37a2.53,2.53,0,1,0-2.52-2.52A2.52,2.52,0,0,0,77.91,73.37Z"/><circle cx="84.98" cy="70.85" r="2.21"/><path d="M92.05,72.73a1.88,1.88,0,1,0-1.88-1.88A1.88,1.88,0,0,0,92.05,72.73Z"/><path d="M99.11,72.39a1.55,1.55,0,1,0-1.54-1.54A1.54,1.54,0,0,0,99.11,72.39Z"/><circle cx="106.18" cy="70.85" r="1.21"/><path d="M113.25,71.73a.89.89,0,1,0-.88-.88A.88.88,0,0,0,113.25,71.73Z"/><circle cx="120.32" cy="70.85" r="0.53"/><path d="M127.38,71a.2.2,0,1,0,0-.39.19.19,0,0,0-.19.2A.19.19,0,0,0,127.38,71Z"/><circle cx="0.18" cy="77.91" r="0.12"/><circle cx="7.24" cy="77.91" r="0.43"/><path d="M14.31,78.68a.77.77,0,1,0-.76-.77A.76.76,0,0,0,14.31,78.68Z"/><circle cx="21.38" cy="77.91" r="1.1"/><path d="M28.44,79.34A1.43,1.43,0,1,0,27,77.91,1.44,1.44,0,0,0,28.44,79.34Z"/><circle cx="35.51" cy="77.91" r="1.74"/><path d="M42.58,80a2,2,0,1,0-2-2A2,2,0,0,0,42.58,80Z"/><circle cx="49.65" cy="77.91" r="2.31"/><path d="M56.71,80.44a2.53,2.53,0,1,0-2.53-2.53A2.53,2.53,0,0,0,56.71,80.44Z"/><path d="M63.78,80.52a2.61,2.61,0,1,0-2.61-2.61A2.61,2.61,0,0,0,63.78,80.52Z"/><path d="M70.85,80.44a2.53,2.53,0,1,0-2.53-2.53A2.52,2.52,0,0,0,70.85,80.44Z"/><circle cx="77.91" cy="77.91" r="2.33"/><path d="M85,80a2.06,2.06,0,1,0-2.06-2.06A2.06,2.06,0,0,0,85,80Z"/><circle cx="92.05" cy="77.91" r="1.76"/><path d="M99.11,79.36a1.45,1.45,0,1,0-1.45-1.45A1.44,1.44,0,0,0,99.11,79.36Z"/><circle cx="106.18" cy="77.91" r="1.14"/><path d="M113.25,78.72a.81.81,0,1,0-.81-.81A.8.8,0,0,0,113.25,78.72Z"/><circle cx="120.32" cy="77.91" r="0.47"/><circle cx="127.38" cy="77.91" r="0.14"/><circle cx="0.18" cy="84.98" r="0.06"/><path d="M7.24,85.31A.33.33,0,1,0,6.91,85,.34.34,0,0,0,7.24,85.31Z"/><circle cx="14.31" cy="84.98" r="0.65"/><circle cx="21.38" cy="84.98" r="0.96"/><circle cx="28.44" cy="84.98" r="1.27"/><circle cx="35.51" cy="84.98" r="1.57"/><circle cx="42.58" cy="84.98" r="1.82"/><path d="M49.65,87A2.06,2.06,0,1,0,47.59,85,2.05,2.05,0,0,0,49.65,87Z"/><path d="M56.71,87.19A2.21,2.21,0,1,0,54.5,85,2.21,2.21,0,0,0,56.71,87.19Z"/><circle cx="63.78" cy="84.98" r="2.27"/><path d="M70.85,87.19A2.21,2.21,0,1,0,68.63,85,2.21,2.21,0,0,0,70.85,87.19Z"/><path d="M77.91,87a2.06,2.06,0,1,0-2-2.06A2.06,2.06,0,0,0,77.91,87Z"/><path d="M85,86.84A1.86,1.86,0,1,0,83.12,85,1.86,1.86,0,0,0,85,86.84Z"/><path d="M92.05,86.57A1.59,1.59,0,1,0,90.46,85,1.59,1.59,0,0,0,92.05,86.57Z"/><path d="M99.11,86.29A1.31,1.31,0,1,0,97.8,85,1.31,1.31,0,0,0,99.11,86.29Z"/><circle cx="106.18" cy="84.98" r="1"/><circle cx="113.25" cy="84.98" r="0.69"/><path d="M120.32,85.35a.37.37,0,1,0-.38-.37A.37.37,0,0,0,120.32,85.35Z"/><circle cx="127.38" cy="84.98" r="0.06"/><circle cx="7.24" cy="92.05" r="0.2"/><circle cx="14.31" cy="92.05" r="0.51"/><circle cx="21.38" cy="92.05" r="0.8"/><circle cx="28.44" cy="92.05" r="1.08"/><path d="M35.51,93.38a1.34,1.34,0,1,0-1.33-1.33A1.33,1.33,0,0,0,35.51,93.38Z"/><path d="M42.58,93.62A1.57,1.57,0,1,0,41,92.05,1.58,1.58,0,0,0,42.58,93.62Z"/><circle cx="49.65" cy="92.05" r="1.76"/><path d="M56.71,93.93a1.88,1.88,0,1,0-1.88-1.88A1.88,1.88,0,0,0,56.71,93.93Z"/><path d="M63.78,94a1.92,1.92,0,1,0-1.92-1.92A1.92,1.92,0,0,0,63.78,94Z"/><path d="M70.85,93.93A1.88,1.88,0,1,0,69,92.05,1.88,1.88,0,0,0,70.85,93.93Z"/><path d="M77.91,93.81a1.77,1.77,0,1,0-1.76-1.76A1.76,1.76,0,0,0,77.91,93.81Z"/><path d="M85,93.63a1.59,1.59,0,1,0-1.59-1.58A1.59,1.59,0,0,0,85,93.63Z"/><path d="M92.05,93.42a1.37,1.37,0,1,0-1.37-1.37A1.37,1.37,0,0,0,92.05,93.42Z"/><circle cx="99.11" cy="92.05" r="1.1"/><path d="M106.18,92.87a.83.83,0,0,0,0-1.65.83.83,0,0,0,0,1.65Z"/><circle cx="113.25" cy="92.05" r="0.55"/><path d="M120.32,92.28a.23.23,0,0,0,.23-.23.23.23,0,0,0-.23-.24.24.24,0,0,0-.24.24A.23.23,0,0,0,120.32,92.28Z"/><circle cx="127.38" cy="92.05" r="0.02"/><circle cx="7.24" cy="99.11" r="0.06"/><circle cx="14.31" cy="99.11" r="0.31"/><circle cx="21.38" cy="99.11" r="0.61"/><path d="M28.44,100a.87.87,0,1,0-.86-.87A.87.87,0,0,0,28.44,100Z"/><circle cx="35.51" cy="99.11" r="1.08"/><path d="M42.58,100.41a1.3,1.3,0,1,0-1.29-1.3A1.3,1.3,0,0,0,42.58,100.41Z"/><path d="M49.65,100.55a1.44,1.44,0,1,0-1.44-1.44A1.44,1.44,0,0,0,49.65,100.55Z"/><path d="M56.71,100.66a1.55,1.55,0,1,0-1.55-1.55A1.54,1.54,0,0,0,56.71,100.66Z"/><path d="M63.78,100.7a1.59,1.59,0,1,0-1.59-1.59A1.59,1.59,0,0,0,63.78,100.7Z"/><path d="M70.85,100.66a1.55,1.55,0,1,0-1.55-1.55A1.54,1.54,0,0,0,70.85,100.66Z"/><path d="M77.91,100.56a1.45,1.45,0,1,0-1.45-1.45A1.44,1.44,0,0,0,77.91,100.56Z"/><path d="M85,100.43a1.32,1.32,0,1,0-1.31-1.32A1.31,1.31,0,0,0,85,100.43Z"/><circle cx="92.05" cy="99.11" r="1.1"/><path d="M99.11,100a.89.89,0,1,0-.88-.89A.89.89,0,0,0,99.11,100Z"/><circle cx="106.18" cy="99.11" r="0.63"/><circle cx="113.25" cy="99.11" r="0.35"/><circle cx="120.32" cy="99.11" r="0.08"/><circle cx="14.31" cy="106.18" r="0.12"/><circle cx="21.38" cy="106.18" r="0.37"/><circle cx="28.44" cy="106.18" r="0.61"/><path d="M35.51,107a.81.81,0,1,0-.8-.81A.8.8,0,0,0,35.51,107Z"/><path d="M42.58,107.16a1,1,0,1,0-1-1A1,1,0,0,0,42.58,107.16Z"/><circle cx="49.65" cy="106.18" r="1.12"/><circle cx="56.71" cy="106.18" r="1.22"/><path d="M63.78,107.42a1.24,1.24,0,1,0-1.24-1.24A1.24,1.24,0,0,0,63.78,107.42Z"/><path d="M70.85,107.4a1.22,1.22,0,1,0-1.22-1.22A1.22,1.22,0,0,0,70.85,107.4Z"/><circle cx="77.91" cy="106.18" r="1.14"/><path d="M85,107.18a1,1,0,1,0-1-1A1,1,0,0,0,85,107.18Z"/><path d="M92.05,107a.82.82,0,0,0,0-1.64.82.82,0,1,0,0,1.64Z"/><circle cx="99.11" cy="106.18" r="0.63"/><circle cx="106.18" cy="106.18" r="0.39"/><circle cx="113.25" cy="106.18" r="0.14"/><circle cx="21.38" cy="113.25" r="0.12"/><path d="M28.44,113.58a.34.34,0,0,0,.34-.33.34.34,0,0,0-.67,0A.33.33,0,0,0,28.44,113.58Z"/><circle cx="35.51" cy="113.25" r="0.51"/><circle cx="42.58" cy="113.25" r="0.67"/><path d="M49.65,114.05a.8.8,0,1,0-.81-.8A.8.8,0,0,0,49.65,114.05Z"/><path d="M56.71,114.11a.86.86,0,1,0-.86-.86A.86.86,0,0,0,56.71,114.11Z"/><path d="M63.78,114.15a.9.9,0,1,0-.9-.9A.9.9,0,0,0,63.78,114.15Z"/><path d="M70.85,114.13a.88.88,0,1,0-.89-.88A.88.88,0,0,0,70.85,114.13Z"/><path d="M77.91,114.05a.8.8,0,1,0,0-1.6.8.8,0,0,0,0,1.6Z"/><path d="M85,113.93a.68.68,0,0,0,.69-.68.69.69,0,0,0-1.38,0A.68.68,0,0,0,85,113.93Z"/><circle cx="92.05" cy="113.25" r="0.55"/><path d="M99.11,113.6a.36.36,0,0,0,.36-.35.36.36,0,0,0-.71,0A.35.35,0,0,0,99.11,113.6Z"/><circle cx="106.18" cy="113.25" r="0.14"/><circle cx="113.25" cy="113.25" r="0.02"/><circle cx="28.44" cy="120.32" r="0.08"/><path d="M35.51,120.53a.22.22,0,1,0,0-.43.21.21,0,0,0-.21.22A.21.21,0,0,0,35.51,120.53Z"/><path d="M42.58,120.67a.36.36,0,0,0,0-.71.36.36,0,0,0,0,.71Z"/><path d="M49.65,120.77a.46.46,0,1,0-.46-.45A.46.46,0,0,0,49.65,120.77Z"/><circle cx="56.71" cy="120.32" r="0.53"/><circle cx="63.78" cy="120.32" r="0.55"/><path d="M70.85,120.84a.53.53,0,1,0-.53-.52A.52.52,0,0,0,70.85,120.84Z"/><path d="M77.91,120.79a.47.47,0,1,0-.47-.47A.47.47,0,0,0,77.91,120.79Z"/><path d="M85,120.69a.38.38,0,1,0-.37-.37A.37.37,0,0,0,85,120.69Z"/><path d="M92.05,120.55a.23.23,0,0,0,.23-.23.23.23,0,0,0-.23-.24.24.24,0,0,0-.24.24A.23.23,0,0,0,92.05,120.55Z"/><circle cx="99.11" cy="120.32" r="0.08"/><circle cx="35.51" cy="127.38" r="0.02"/><circle cx="42.58" cy="127.38" r="0.06"/><path d="M49.65,127.52a.13.13,0,0,0,.13-.14.13.13,0,0,0-.13-.13.13.13,0,0,0-.14.13A.14.14,0,0,0,49.65,127.52Z"/><path d="M56.71,127.58a.2.2,0,0,0,.2-.2.19.19,0,0,0-.2-.19.18.18,0,0,0-.19.19A.19.19,0,0,0,56.71,127.58Z"/><path d="M63.78,127.6a.21.21,0,0,0,.21-.22.21.21,0,0,0-.21-.21.21.21,0,0,0-.22.21A.22.22,0,0,0,63.78,127.6Z"/><path d="M70.85,127.58a.2.2,0,0,0,.19-.2.19.19,0,0,0-.19-.19.19.19,0,0,0-.2.19A.2.2,0,0,0,70.85,127.58Z"/><path d="M77.91,127.52a.14.14,0,0,0,.14-.14.13.13,0,0,0-.14-.13.13.13,0,0,0-.13.13A.13.13,0,0,0,77.91,127.52Z"/><circle cx="84.98" cy="127.38" r="0.06"/><circle cx="92.05" cy="127.38" r="0.02"/></g></g></svg>